<svg id="Capa_1" enable-background="new 0 0 512 512" height="512" viewBox="0 0 512 512" width="512" xmlns="http://www.w3.org/2000/svg"><path d="m501.034 42.787-31.821-31.821c-14.622-14.622-38.413-14.622-53.035 0l-366.25 366.25c-.561.561-1.013 1.19-1.359 1.859-.01.02-.018.042-.028.062-.104.206-.2.415-.283.627-.01.022-47.742 122.003-47.742 122.003-1.086 2.775-.426 5.93 1.681 8.036s5.262 2.767 8.036 1.681l121.98-47.731c.235-.094.444-.19.65-.294.02-.01.041-.018.061-.028.669-.346 1.298-.798 1.859-1.359l366.25-366.25c14.622-14.622 14.622-38.413.001-53.035zm-480.302 448.481 13.44-34.345 20.906 20.906zm49.593-19.406-30.187-30.187 17.899-45.743 58.03 58.031zm59.155-25.701-63.641-63.641 246.038-246.038 63.642 63.642zm360.947-360.946-72.481 72.481-47.731-47.731c-2.929-2.929-7.678-2.929-10.607 0s-2.929 7.678 0 10.607l47.731 47.731-21.214 21.214-63.642-63.642 104.302-104.302c8.773-8.773 23.048-8.773 31.821 0l31.821 31.821c8.773 8.774 8.773 23.048 0 31.821z"/></svg>