<svg id="Capa_1" enable-background="new 0 0 512 512" height="512" viewBox="0 0 512 512" width="512" xmlns="http://www.w3.org/2000/svg"><path d="m494.455 17.545c-23.394-23.394-61.459-23.394-84.853 0l-359.675 359.676c-.562.562-1.014 1.191-1.36 1.862-.126.251-.224.467-.311.686-.01.023-47.74 121.999-47.74 121.999-1.086 2.775-.426 5.929 1.681 8.036s5.261 2.767 8.036 1.681l121.976-47.73c.242-.097.457-.195.669-.303.71-.365 1.339-.817 1.901-1.378l359.675-359.675c23.394-23.395 23.394-61.46.001-84.854zm-473.724 473.724 13.439-34.344 20.905 20.905zm49.592-19.406-30.186-30.186 17.899-45.741 58.029 58.029zm59.153-25.699-63.64-63.64 231.057-231.057 63.64 63.64zm262.877-262.877-47.73-47.729c-2.929-2.929-7.678-2.929-10.607 0s-2.929 7.677 0 10.606l47.73 47.73-10.606 10.606-63.64-63.64 42.426-42.427 63.64 63.64zm31.82-31.82-63.64-63.64 10.607-10.606 63.64 63.64zm59.675-59.676-38.462 38.462-63.64-63.64 38.462-38.462c17.545-17.545 46.094-17.545 63.64 0s17.545 46.095 0 63.64z"/></svg>