<svg id="Capa_1" enable-background="new 0 0 512 512" height="512" viewBox="0 0 512 512" width="512" xmlns="http://www.w3.org/2000/svg"><path d="m501.075 10.924c-13.769-13.769-36.127-14.632-50.899-1.963l-299.007 256.441c-.145.125-.286.254-.421.39l-31.82 31.82c-11.855 11.855-14.096 29.736-6.727 43.872l-69.946 23.315c-2.362.787-4.179 2.695-4.851 5.092l-37.094 132.469c-.004.016-.033.118-.033.118-.01.035-.013.07-.022.104-.065.248-.117.498-.157.75-.013.083-.026.166-.036.249-.032.259-.052.519-.057.78 0 .039-.005.077-.005.115-.001.293.019.585.052.877.009.078.022.154.033.231.033.229.077.457.132.683.017.07.032.14.051.21.157.575.383 1.133.679 1.665.035.063.073.124.11.186.12.201.25.398.391.59.047.065.093.131.143.194.187.239.384.471.604.691s.452.417.691.604c.064.05.129.095.194.143.192.14.388.271.59.39.062.037.124.075.187.111.531.295 1.089.522 1.664.678.07.019.141.035.212.052.225.054.452.098.681.131.078.011.155.025.234.034.291.033.583.053.875.052.039 0 .079-.005.118-.006.26-.005.519-.025.777-.057.083-.01.165-.023.248-.036.253-.04.505-.092.753-.157.034-.009.068-.012.102-.021l.099-.028c.021-.006 132.488-37.1 132.488-37.1 2.398-.671 4.305-2.489 5.092-4.851l23.315-69.946c14.136 7.368 32.017 5.127 43.871-6.728l31.82-31.82c.135-.135.265-.276.39-.421l256.443-299.003c12.669-14.772 11.806-37.13-1.964-50.9zm-366.845 450.301-101.181 28.333 49.613-49.613c8.362 3.983 18.691 2.523 25.604-4.391 8.773-8.773 8.773-23.047 0-31.82s-23.047-8.773-31.82 0c-6.914 6.914-8.375 17.242-4.391 25.604l-49.613 49.613 28.333-101.181 71.458-23.82 35.816 35.816zm-47.177-46.885c2.924-2.924 7.682-2.924 10.607 0 2.924 2.924 2.924 7.682 0 10.607-2.924 2.924-7.682 2.924-10.607 0s-2.925-7.682 0-10.607zm122.031-37.178-58.336-58.336c-2.929-2.929-7.678-2.929-10.607 0s-2.929 7.678 0 10.607l57.424 57.424c-8.362 3.983-18.691 2.522-25.604-4.391l-42.426-42.426c-8.773-8.773-8.773-23.047 0-31.82l26.517-26.517 74.246 74.246zm282.568-325.104-251.17 292.862-73.402-73.402 292.861-251.17c8.858-7.597 22.268-7.077 30.528 1.184 8.26 8.259 8.78 21.668 1.183 30.526z"/></svg>