<svg id="Capa_1" enable-background="new 0 0 512 512" height="512" viewBox="0 0 512 512" width="512" xmlns="http://www.w3.org/2000/svg"><path d="m463.754 379.791c-.093-.234-.19-.445-.295-.653-.01-.019-.017-.039-.027-.058-.346-.669-.798-1.298-1.359-1.86l-105.31-105.31c-2.929-2.929-7.678-2.929-10.607 0s-2.929 7.677 0 10.606l100.007 100.007-63.64 63.64-115.916-115.917 227.848-227.848c23.394-23.394 23.394-61.459 0-84.853-23.394-23.394-61.459-23.394-84.853 0l-153.602 153.602-153.602-153.602c-23.394-23.394-61.459-23.394-84.853 0-23.394 23.394-23.394 61.459 0 84.853l153.602 153.602-121.22 121.221c-.561.561-1.013 1.19-1.359 1.86-.01.018-.017.037-.026.056-.105.208-.201.418-.286.633-.01.022-47.74 121.998-47.74 121.998-1.085 2.775-.426 5.929 1.681 8.036s5.261 2.767 8.036 1.681l121.976-47.73c.237-.094.448-.191.656-.296.018-.009.037-.016.055-.025.669-.346 1.299-.798 1.86-1.359l121.22-121.222 121.221 121.221c.561.561 1.19 1.013 1.86 1.359.019.01.039.017.058.027.208.105.419.202.633.286.02.009 121.995 47.739 121.995 47.739 2.775 1.086 5.93.426 8.036-1.681 2.107-2.107 2.767-5.261 1.681-8.036zm-43.546-351.639c17.545-17.545 46.094-17.546 63.64 0s17.545 46.094 0 63.639l-112.708 112.709-63.64-63.64zm-392.056 63.639c-17.546-17.546-17.545-46.094 0-63.639s46.094-17.546 63.64 0l112.707 112.708-63.64 63.64zm123.314 123.315 63.64-63.64 30.288 30.288-63.64 63.64zm-130.735 276.163 13.439-34.344 20.905 20.905zm49.592-19.406-30.186-30.186 17.899-45.741 58.029 58.029zm59.153-25.699-63.64-63.64 231.057-231.057 63.64 63.64zm266.46 7.801 58.029-58.029 17.898 45.741-30.186 30.186zm60.988 23.865 20.906-20.906 13.439 34.345z"/></svg>