<svg id="Capa_1" enable-background="new 0 0 512 512" height="512" viewBox="0 0 512 512" width="512" xmlns="http://www.w3.org/2000/svg"><path d="m450.305 378.384 6.466-6.466c1.406-1.406 2.196-3.314 2.196-5.303s-.79-3.897-2.196-5.303l-89.401-89.401c-2.93-2.929-7.678-2.929-10.607 0s-2.929 7.678 0 10.606l84.099 84.098-74.246 74.246-100.01-100.008 243.197-243.197c2.929-2.929 2.929-7.678 0-10.606l-84.852-84.853c-1.407-1.407-3.314-2.197-5.304-2.197s-3.896.79-5.304 2.197l-158.343 158.344-158.343-158.344c-1.408-1.407-3.315-2.197-5.304-2.197s-3.896.79-5.304 2.197l-84.852 84.853c-2.929 2.929-2.929 7.678 0 10.606l158.344 158.344-105.312 105.312c-1.406 1.406-2.196 3.314-2.196 5.303s.79 3.897 2.196 5.303l6.466 6.466-60.626 101.044c-1.771 2.951-1.305 6.729 1.128 9.162l21.213 21.213c1.446 1.446 3.366 2.197 5.307 2.197 1.324 0 2.658-.35 3.855-1.069l101.045-60.627 6.466 6.465c1.465 1.464 3.385 2.197 5.304 2.197 1.92 0 3.839-.732 5.304-2.197l105.309-105.309 105.31 105.31c1.465 1.464 3.385 2.197 5.304 2.197s3.839-.732 5.304-2.197l6.466-6.466 101.045 60.627c1.197.719 2.531 1.069 3.855 1.069 1.939 0 3.86-.751 5.307-2.197l21.213-21.213c2.433-2.434 2.898-6.211 1.128-9.162zm-432.198-286.031 74.246-74.247 153.04 153.041-74.246 74.246zm11.769 402.703-12.932-12.932 55.684-92.807 50.055 50.054zm115.51-54.196-74.246-74.246 105.3-105.301c.022-.022 84.851-84.851 84.851-84.851.025-.025 158.356-158.356 158.356-158.356l74.246 74.247-243.195 243.195c-.004.004-105.312 105.312-105.312 105.312zm336.738 54.196-92.808-55.685 50.055-50.054 55.684 92.807z"/></svg>