<svg id="Capa_1" enable-background="new 0 0 512 512" height="512" viewBox="0 0 512 512" width="512" xmlns="http://www.w3.org/2000/svg"><path d="m431.167 431.167c-2.929 2.929-2.929 7.678 0 10.607s7.678 2.929 10.607 0 2.929-7.678 0-10.607c-2.93-2.929-7.678-2.929-10.607 0z"/><path d="m440.882 379.03 6.198-6.198c2.929-2.929 2.929-7.678 0-10.607l-90.317-90.317c-2.929-2.929-7.678-2.929-10.607 0s-2.929 7.678 0 10.607l85.014 85.014-5.328 5.328c-.039.039-.079.077-.117.117l-52.751 52.751c-.04.038-.079.079-.118.118l-5.325 5.325-100.924-100.923 243.196-243.195c2.929-2.929 2.929-7.678 0-10.607l-74.246-74.246c-2.929-2.929-7.678-2.929-10.607 0l-168.95 168.95-168.951-168.95c-2.929-2.929-7.678-2.929-10.607 0l-74.245 74.246c-2.929 2.929-2.929 7.678 0 10.607l168.95 168.95-106.227 106.227c-2.929 2.929-2.929 7.678 0 10.606l6.197 6.197-67.168 97.751c-6.133 8.929-5.024 20.97 2.638 28.632 7.661 7.662 19.703 8.771 28.633 2.638l97.75-67.167 6.197 6.197c2.929 2.929 7.678 2.929 10.607 0l106.228-106.228 106.226 106.226c2.929 2.929 7.678 2.929 10.607 0l6.196-6.196 97.752 67.168c8.929 6.133 20.97 5.024 28.632-2.638 7.661-7.661 8.771-19.703 2.638-28.633zm-422.775-297.284 63.64-63.64 10.607 10.606-63.64 63.64zm21.213 21.213 63.64-63.64 142.434 142.434-63.64 63.64zm-12.594 392.728c-2.972 2.041-6.981 1.671-9.532-.88s-2.922-6.56-.881-9.531l13.756-20.02 16.676 16.676zm32.592-22.396-20.609-20.609 43.196-62.864 40.277 40.277zm85.152-42.121-5.33-5.33c-.037-.037-.073-.075-.111-.111l-52.744-52.744c-.047-.05-.098-.098-.147-.146l-5.307-5.307 106.226-106.226c.002-.002 243.198-243.198 243.198-243.198l63.64 63.64-10.607 10.606-47.73-47.73c-2.929-2.929-7.678-2.929-10.607 0s-2.929 7.678 0 10.607l47.73 47.73-221.967 221.965c-.033.032-106.244 106.244-106.244 106.244zm245.347-1.076 40.277-40.277 43.197 62.864-20.609 20.609zm104.989 64.712c-2.552 2.552-6.56 2.922-9.531.881l-20.02-13.756 16.675-16.676 13.756 20.019c2.042 2.972 1.672 6.981-.88 9.532z"/><path d="m70.227 431.167c-2.929 2.929-2.929 7.678 0 10.607s7.678 2.929 10.607 0 2.929-7.678 0-10.607-7.678-2.929-10.607 0z"/></svg>