<svg id="Capa_1" enable-background="new 0 0 512 512" height="512" viewBox="0 0 512 512" width="512" xmlns="http://www.w3.org/2000/svg"><path d="m367.369 271.91c-2.929-2.93-7.678-2.929-10.606 0-2.929 2.929-2.929 7.678 0 10.606l137.13 137.131-74.246 74.246-153.04-153.04 243.196-243.197c2.929-2.929 2.929-7.678 0-10.606l-84.852-84.853c-1.406-1.407-3.314-2.197-5.303-2.197s-3.897.79-5.303 2.197l-158.345 158.344-158.344-158.344c-2.929-2.929-7.678-2.929-10.606 0l-84.853 84.852c-1.407 1.407-2.197 3.314-2.197 5.304s.79 3.897 2.197 5.303l158.344 158.344-158.344 158.344c-1.407 1.406-2.197 3.314-2.197 5.303s.79 3.897 2.197 5.303l84.853 84.853c1.464 1.464 3.384 2.197 5.303 2.197s3.839-.732 5.303-2.197l158.344-158.344 158.344 158.344c1.406 1.407 3.314 2.197 5.303 2.197s3.897-.79 5.303-2.197l84.852-84.853c2.929-2.929 2.929-7.678 0-10.606zm52.279-253.804 74.246 74.246-53.033 53.033-74.247-74.245zm-327.295 0 53.033 53.033-74.246 74.247-53.033-53.033zm-10.606 137.886 74.246-74.246 89.401 89.401-74.246 74.246zm10.606 337.902-74.247-74.246 337.902-337.902 74.246 74.246-179.556 179.556c-.002.002-158.345 158.346-158.345 158.346z"/><path d="m87.049 414.344c-2.929 2.929-2.929 7.678 0 10.607s7.678 2.929 10.607 0 2.929-7.678 0-10.607-7.678-2.929-10.607 0z"/><path d="m87.049 456.771c-2.929 2.929-2.929 7.678 0 10.607s7.678 2.929 10.607 0 2.929-7.678 0-10.607-7.678-2.929-10.607 0z"/></svg>