<svg id="Capa_1" enable-background="new 0 0 512 512" height="512" viewBox="0 0 512 512" width="512" xmlns="http://www.w3.org/2000/svg"><path d="m496.561 15.439c-20.026-20.026-51.988-20.647-72.762-1.413l-211.005 195.366c-8.4-4.117-18.846-2.708-25.822 4.267-7.048 7.048-8.434 17.645-4.158 26.089l-83.544 98.783c-1.705 1.704-3.508 3.497-5.393 5.371-18.775 18.667-44.488 44.232-64.46 72.256-24.941 34.998-33.888 63.934-27.353 88.462.346 1.298 1.026 2.454 1.944 3.373.918.918 2.074 1.598 3.372 1.943 24.527 6.536 53.464-2.411 88.461-27.353 28.024-19.972 53.589-45.686 72.256-64.46 1.874-1.886 3.667-3.688 5.371-5.394l98.783-83.543c8.444 4.276 19.042 2.89 26.089-4.158 6.975-6.976 8.384-17.422 4.267-25.822l195.366-211.005c19.235-20.774 18.614-52.735-1.412-72.762zm-339.101 392.108c-33.764 33.96-95.712 96.261-141.834 88.828-7.435-46.123 54.868-108.071 88.828-141.835.113-.112.219-.218.331-.329l53.005 53.005c-.112.112-.217.218-.33.331zm130.275-93.125c-2.912 2.912-7.642 2.925-10.57.037-.03-.031-.064-.066-.099-.099l-58.274-58.274c-2.929-2.929-7.678-2.929-10.607 0s-2.929 7.678 0 10.606l52.571 52.571-91.945 77.761-53.835-53.835 83.025-98.17c2.518-2.978 2.334-7.389-.423-10.147-2.924-2.924-2.924-7.682 0-10.607s7.682-2.925 10.607 0l79.549 79.549c2.925 2.925 2.925 7.683.001 10.608zm199.232-236.411-194.141 209.682-68.519-68.519 209.682-194.141c14.836-13.736 37.662-13.291 51.965 1.013 14.304 14.303 14.749 37.129 1.013 51.965z"/></svg>