<svg id="Capa_1" enable-background="new 0 0 512 512" height="512" viewBox="0 0 512 512" width="512" xmlns="http://www.w3.org/2000/svg"><circle cx="177.23" cy="249.917" r="7.5"/><circle cx="262.083" cy="334.77" r="7.5"/><path d="m496.648 89.598c20.47-20.47 20.47-53.777 0-74.246-20.469-20.469-53.776-20.47-74.246 0l-165.622 165.622c-14.621 14.621-38.412 14.621-53.033 0-2.929-2.929-7.678-2.929-10.607 0l-80.458 80.458c-8.362-3.985-18.693-2.52-25.608 4.395-6.911 6.911-8.353 17.228-4.375 25.588l-80.502 80.502c-1.956 1.956-2.677 4.83-1.875 7.476.802 2.647 2.994 4.639 5.707 5.181l12.775 2.555 2.555 12.775c.594 2.969 2.914 5.29 5.883 5.883l12.775 2.555 2.555 12.775c.594 2.969 2.914 5.289 5.883 5.883l12.775 2.555 2.555 12.775c.594 2.969 2.914 5.289 5.883 5.883l12.775 2.555 2.555 12.775c.594 2.969 2.914 5.29 5.883 5.883l12.775 2.555 2.555 12.775c.594 2.969 2.914 5.289 5.883 5.883l12.775 2.555 2.555 12.775c.295 1.479 1.022 2.803 2.051 3.832.858.858 1.926 1.51 3.13 1.875 2.647.802 5.52.081 7.476-1.875l80.502-80.502c8.36 3.978 18.677 2.536 25.588-4.375 6.914-6.914 8.379-17.246 4.395-25.608l80.458-80.458c2.929-2.929 2.929-7.677 0-10.607-14.621-14.621-14.621-38.412 0-53.033zm-357.263 399.689-.787-3.936c-.594-2.969-2.914-5.29-5.883-5.883l-12.775-2.555-2.555-12.775c-.594-2.969-2.914-5.289-5.883-5.883l-12.775-2.555-2.555-12.775c-.594-2.969-2.914-5.289-5.883-5.883l-12.775-2.555-2.555-12.775c-.594-2.969-2.914-5.29-5.883-5.883l-12.776-2.556-2.555-12.775c-.594-2.969-2.914-5.29-5.883-5.883l-12.775-2.555-2.555-12.775c-.594-2.969-2.914-5.289-5.883-5.883l-3.936-.787 69.665-69.665 116.672 116.673zm101.485-101.484-100.763-100.763c-2.929-2.929-7.678-2.929-10.607 0s-2.929 7.677 0 10.607l106.066 106.066c2.924 2.924 2.924 7.682 0 10.607-2.924 2.924-7.682 2.924-10.607 0l-127.278-127.28c-2.924-2.924-2.924-7.682 0-10.607 2.924-2.924 7.682-2.924 10.607 0 2.929 2.929 7.678 2.929 10.607 0l58.336-58.336 116.672 116.673zm74.624-74.624-10.984 10.984-116.673-116.673 10.984-10.984c20.547 15.385 49.896 13.744 68.565-4.926l165.622-165.621c14.621-14.621 38.412-14.621 53.033 0s14.621 38.412 0 53.033l-165.622 165.622c-18.669 18.669-20.31 48.017-4.925 68.565z"/></svg>