<svg id="Capa_1" enable-background="new 0 0 512 512" height="512" viewBox="0 0 512 512" width="512" xmlns="http://www.w3.org/2000/svg"><path d="m408.996 71.184c-8.773 8.773-8.773 23.047 0 31.82 8.772 8.773 23.047 8.773 31.82 0s8.772-23.047 0-31.82c-8.773-8.772-23.047-8.773-31.82 0zm21.213 21.213c-2.924 2.924-7.682 2.924-10.606 0-2.925-2.924-2.925-7.682 0-10.607 2.924-2.924 7.682-2.924 10.606 0 2.924 2.925 2.924 7.683 0 10.607z"/><path d="m506.427 11.024c-.673-2.683-2.768-4.779-5.451-5.451-55.683-13.96-109.894-1.328-145.013 33.791-5.19 5.19-10.005 10.953-14.313 17.127l-140.638 201.628c-2.079 2.981-1.722 7.024.848 9.594l5.422 5.422-66.669 66.669-60.643-.112c-2.622-.005-5.055 1.359-6.419 3.597l-68.057 111.689c-9.026 14.814-6.757 33.733 5.519 46.009s31.195 14.545 46.009 5.519l111.689-68.057c2.23-1.359 3.593-3.779 3.598-6.39l.112-60.423 66.68-66.68 5.185 5.185c2.57 2.57 6.613 2.928 9.594.848l201.628-140.639c6.171-4.303 11.933-9.119 17.128-14.313 35.119-35.119 47.751-89.33 33.791-145.013zm-346.803 352.195c-1.403 1.403-2.193 3.305-2.197 5.289l-.11 59.318-108.099 65.87c-8.884 5.412-20.232 4.049-27.598-3.316s-8.728-18.714-3.317-27.597l65.861-108.084 59.536.11c1.994.004 3.907-.786 5.317-2.196l68.871-68.871 10.606 10.607zm302.405-217.789c-4.572 4.572-9.653 8.816-15.102 12.616l-171.482 119.612-24.332-24.332c-2.929-2.929-7.678-2.929-10.607 0s-2.929 7.677 0 10.607l22.442 22.442-12.497 8.717-.743-.744.071-.071-10.607-10.607-.071.071-10.607-10.607.072-.071-10.607-10.606-.071.071-.98-.98 137.046-196.475c3.803-5.452 8.048-10.534 12.616-15.102 30.443-30.443 77.408-41.847 126.353-30.893 10.953 48.944-.451 95.909-30.894 126.352z"/></svg>