<svg id="Capa_1" enable-background="new 0 0 512 512" height="512" viewBox="0 0 512 512" width="512" xmlns="http://www.w3.org/2000/svg"><path d="m256 388.152c-11.578-7.242-27.063-5.835-37.123 4.225-20.47 20.47-20.47 53.776 0 74.246 10.235 10.235 23.679 15.353 37.123 15.353s26.888-5.118 37.123-15.353c20.47-20.47 20.47-53.776 0-74.246-10.06-10.06-25.545-11.467-37.123-4.225zm26.517 67.865c-14.621 14.621-38.412 14.621-53.033 0s-14.621-38.412 0-53.033c2.924-2.924 6.766-4.386 10.606-4.386 3.841 0 7.683 1.462 10.607 4.386 2.929 2.929 7.678 2.929 10.606 0 5.849-5.848 15.365-5.849 21.213 0 14.622 14.621 14.622 38.412.001 53.033z"/><path d="m378.683 326.183c-14.226 0-26.171 9.955-29.237 23.263-13.308 3.066-23.263 15.011-23.263 29.237 0 28.949 23.551 52.5 52.5 52.5s52.5-23.551 52.5-52.5-23.551-52.5-52.5-52.5zm0 90c-20.678 0-37.5-16.822-37.5-37.5 0-8.271 6.729-15 15-15 4.142 0 7.5-3.358 7.5-7.5 0-8.271 6.729-15 15-15 20.678 0 37.5 16.822 37.5 37.5s-16.822 37.5-37.5 37.5z"/><path d="m466.623 218.877c-20.47-20.47-53.776-20.47-74.246 0-10.06 10.059-11.467 25.544-4.225 37.123-7.243 11.579-5.835 27.064 4.225 37.123 10.235 10.235 23.679 15.353 37.123 15.353s26.888-5.118 37.123-15.353c20.47-20.47 20.47-53.776 0-74.246zm-10.606 63.64c-14.621 14.621-38.412 14.621-53.033 0-5.849-5.849-5.849-15.365 0-21.213 2.929-2.929 2.929-7.678 0-10.606-5.849-5.849-5.849-15.365 0-21.213 7.311-7.311 16.914-10.966 26.517-10.966s19.206 3.655 26.517 10.966c14.62 14.62 14.62 38.41-.001 53.032z"/><path d="m349.446 162.554c3.066 13.308 15.011 23.263 29.237 23.263 28.949 0 52.5-23.551 52.5-52.5s-23.551-52.5-52.5-52.5-52.5 23.551-52.5 52.5c0 14.226 9.955 26.171 23.263 29.237zm29.237-66.737c20.678 0 37.5 16.822 37.5 37.5s-16.822 37.5-37.5 37.5c-8.271 0-15-6.729-15-15 0-4.142-3.358-7.5-7.5-7.5-8.271 0-15-6.729-15-15 0-20.678 16.822-37.5 37.5-37.5z"/><path d="m218.877 45.377c-20.47 20.47-20.47 53.776 0 74.246 10.06 10.06 25.545 11.467 37.123 4.225 4.847 3.032 10.379 4.548 15.91 4.548 7.682 0 15.364-2.924 21.213-8.773 20.47-20.47 20.47-53.776 0-74.246s-53.776-20.47-74.246 0zm63.64 63.64c-5.849 5.849-15.365 5.849-21.213 0-1.464-1.464-3.384-2.197-5.303-2.197s-3.839.732-5.303 2.197c-5.848 5.849-15.364 5.849-21.213 0-14.621-14.622-14.621-38.412 0-53.033s38.412-14.621 53.033 0 14.62 38.411-.001 53.033z"/><path d="m437.02 74.98c-48.353-48.351-112.64-74.98-181.02-74.98s-132.667 26.629-181.02 74.98c-48.351 48.353-74.98 112.64-74.98 181.02 0 64.376 52.374 116.75 116.75 116.75 12.407 0 22.5 10.093 22.5 22.5 0 64.376 52.374 116.75 116.75 116.75 68.38 0 132.667-26.629 181.02-74.98 48.351-48.353 74.98-112.64 74.98-181.02s-26.629-132.667-74.98-181.02zm-181.02 422.02c-56.105 0-101.75-45.645-101.75-101.75 0-20.678-16.822-37.5-37.5-37.5-56.105 0-101.75-45.645-101.75-101.75 0-132.888 108.112-241 241-241s241 108.112 241 241-108.112 241-241 241z"/><path d="m116.75 184.25c-13.265 0-26.231 3.657-37.496 10.574-3.53 2.167-4.634 6.786-2.466 10.316 2.168 3.529 6.786 4.634 10.316 2.466 8.902-5.467 19.154-8.356 29.646-8.356 31.292 0 56.75 25.458 56.75 56.75s-25.458 56.75-56.75 56.75-56.75-25.458-56.75-56.75c0-10.493 2.89-20.745 8.357-29.647 2.167-3.529 1.063-8.148-2.466-10.316s-8.148-1.063-10.316 2.466c-6.918 11.265-10.575 24.231-10.575 37.497 0 39.563 32.187 71.75 71.75 71.75s71.75-32.187 71.75-71.75-32.187-71.75-71.75-71.75z"/></svg>