<svg id="Capa_1" enable-background="new 0 0 512 512" height="512" viewBox="0 0 512 512" width="512" xmlns="http://www.w3.org/2000/svg"><path d="m509.803 65.836-63.64-63.64c-2.929-2.929-7.678-2.929-10.606 0l-21.213 21.214c-2.929 2.929-2.929 7.678 0 10.606l5.303 5.303-13.258 13.258-70.534-10.076c-.047-.007-.094-.006-.14-.012-.185-.023-.37-.037-.556-.046-.085-.004-.17-.011-.255-.012-.252-.004-.504.004-.756.026-.318.027-.593.07-.866.126-.039.008-.078.02-.117.029-.227.05-.451.111-.673.182-.06.019-.119.041-.178.062-.2.07-.396.148-.59.235-.063.029-.126.057-.189.088-.186.09-.369.189-.548.295-.062.036-.124.071-.185.109-.178.113-.352.236-.522.365-.053.041-.109.077-.162.119-.216.173-.426.356-.626.556l-262.795 262.794-41.338 20.669c-.348.179-.655.367-.953.576-.057.04-.112.082-.167.123-.288.215-.568.444-.829.706l-21.213 21.213c-1.407 1.406-2.197 3.314-2.197 5.303s.79 3.897 2.197 5.303l148.493 148.493c1.406 1.407 3.314 2.197 5.303 2.197s3.897-.79 5.303-2.197l21.213-21.213c.262-.262.491-.542.706-.83.041-.055.082-.11.122-.166.21-.298.398-.606.56-.926.017-.028 20.686-41.366 20.686-41.366l262.794-262.794c.199-.199.382-.408.554-.623.046-.058.086-.119.131-.178.124-.164.242-.33.35-.501.043-.068.082-.139.123-.208.1-.17.194-.342.279-.517.035-.073.069-.146.102-.22.08-.18.153-.362.218-.547.026-.073.053-.146.077-.22.064-.201.118-.403.164-.607.014-.06.032-.119.044-.18.054-.266.096-.533.121-.802.003-.035.002-.07.005-.105.018-.232.027-.464.023-.697-.001-.088-.008-.176-.013-.264-.009-.186-.023-.371-.046-.556-.006-.046-.005-.091-.011-.136l-10.077-70.534 13.258-13.259 5.303 5.303c1.464 1.464 3.384 2.197 5.303 2.197s3.839-.732 5.303-2.197l21.213-21.213c2.931-2.93 2.931-7.679.002-10.608zm-58.336-15.91 10.607-10.607 10.607 10.606-10.607 10.607zm-10.607-31.82 10.607 10.607-10.607 10.607-5.298-5.298c-.01-.01-5.308-5.308-5.308-5.308zm-10.606 180.313-116.673-116.673 21.213-21.213 116.672 116.672zm-63.64 63.639-79.55-79.55c-2.929-2.929-7.678-2.929-10.606 0-2.929 2.929-2.929 7.678 0 10.606l79.55 79.55-125.769 125.77-116.673-116.673 125.769-125.769 15.91 15.91c1.464 1.464 3.384 2.197 5.303 2.197s3.839-.732 5.303-2.197c2.929-2.929 2.929-7.678 0-10.606l-15.91-15.91 53.033-53.033 116.672 116.672zm77.782-155.563 7.071 49.498-95.459-95.459 49.497 7.071zm-288.403 387.398-137.887-137.886 10.607-10.607 137.886 137.886zm37.123-58.336c-.57.57-1.044 1.228-1.405 1.949l-16.56 33.119-133.777-133.776 33.119-16.56c.721-.36 1.379-.834 1.949-1.405l26.517-26.517 116.673 116.673zm258.351-343.204-31.82-31.82 10.607-10.606 31.82 31.82zm31.82-10.606-5.299-5.299c-.01-.01-5.308-5.308-5.308-5.308l10.607-10.607 10.607 10.607z"/></svg>