<svg id="Capa_1" enable-background="new 0 0 512 512" height="512" viewBox="0 0 512 512" width="512" xmlns="http://www.w3.org/2000/svg"><path d="m482 412h-237.29c-3.096-8.729-11.432-15-21.21-15s-18.12 6.271-21.215 15.001l-83.447.016c-.113-.005-.224-.017-.337-.017-.112 0-.221.012-.332.017-1.446 0-2.961-.004-4.55-.007-45.36-.094-95.181 1.779-112.22 25.631-1.863 2.608-1.863 6.112 0 8.72 17.041 23.853 66.868 25.751 112.222 25.631 1.593-.004 3.111-.007 4.558-.008.108.005.214.016.322.016.111 0 .218-.012.328-.017l83.457.016c3.094 8.73 11.436 15.001 21.214 15.001s18.114-6.271 21.21-15h237.29c16.542 0 30-13.458 30-30s-13.458-30-30-30zm-464.192 30c18.327-14.679 66.816-15.042 93.192-14.996v29.993c-26.38.047-74.866-.318-93.192-14.997zm205.692 30c-4.136 0-7.5-3.364-7.5-7.5v-15c0-4.142-3.358-7.5-7.5-7.5s-7.5 3.358-7.5 7.5v7.499l-75-.014v-29.969l82.501-.016c4.142-.001 7.499-3.358 7.499-7.5 0-4.136 3.364-7.5 7.5-7.5s7.5 3.364 7.5 7.5v45c0 4.136-3.364 7.5-7.5 7.5zm258.5-15h-236v-30h236c8.271 0 15 6.729 15 15s-6.729 15-15 15z"/><path d="m459.5 25h-407c-28.949 0-52.5 23.551-52.5 52.5v252c0 28.949 23.551 52.5 52.5 52.5h407c28.948 0 52.5-23.551 52.5-52.5v-252c0-28.949-23.552-52.5-52.5-52.5zm37.5 304.5c0 20.678-16.822 37.5-37.5 37.5h-407c-20.678 0-37.5-16.822-37.5-37.5v-252c0-20.678 16.822-37.5 37.5-37.5h407c20.678 0 37.5 16.822 37.5 37.5z"/><path d="m100.333 211.333c-12.877 0-25.477 3.515-36.436 10.164-3.541 2.149-4.67 6.761-2.521 10.303 2.149 3.541 6.761 4.671 10.303 2.521 8.612-5.226 18.521-7.988 28.654-7.988 30.511 0 55.333 24.822 55.333 55.333s-24.821 55.334-55.333 55.334-55.333-24.822-55.333-55.333c0-10.133 2.762-20.042 7.988-28.654 2.148-3.542 1.02-8.154-2.521-10.303-3.542-2.148-8.154-1.019-10.303 2.521-6.649 10.959-10.164 23.558-10.164 36.436 0 38.782 31.551 70.333 70.333 70.333s70.333-31.551 70.333-70.333-31.55-70.334-70.333-70.334z"/><path d="m256 211.333c-38.782 0-70.333 31.551-70.333 70.333s31.551 70.334 70.333 70.334 70.334-31.551 70.334-70.333-31.552-70.334-70.334-70.334zm0 125.667c-30.511 0-55.333-24.822-55.333-55.333s24.822-55.333 55.333-55.333c30.512 0 55.334 24.822 55.334 55.333s-24.822 55.333-55.334 55.333z"/><path d="m411.666 211.333c-38.782 0-70.333 31.551-70.333 70.333s31.551 70.334 70.333 70.334 70.334-31.551 70.334-70.333-31.552-70.334-70.334-70.334zm0 125.667c-30.511 0-55.333-24.822-55.333-55.333s24.822-55.333 55.333-55.333c30.512 0 55.334 24.822 55.334 55.333s-24.822 55.333-55.334 55.333z"/><path d="m100.333 55c-38.782 0-70.333 31.551-70.333 70.333s31.551 70.333 70.333 70.333 70.333-31.551 70.333-70.333-31.55-70.333-70.333-70.333zm0 125.667c-30.511 0-55.333-24.822-55.333-55.334s24.822-55.333 55.333-55.333 55.333 24.822 55.333 55.333-24.821 55.334-55.333 55.334z"/><path d="m256 55c-38.782 0-70.333 31.551-70.333 70.333s31.551 70.333 70.333 70.333 70.334-31.551 70.334-70.333-31.552-70.333-70.334-70.333zm0 125.667c-30.511 0-55.333-24.822-55.333-55.333s24.822-55.334 55.333-55.334c30.512 0 55.334 24.822 55.334 55.333s-24.822 55.334-55.334 55.334z"/><path d="m411.666 55c-38.782 0-70.333 31.551-70.333 70.333s31.551 70.333 70.333 70.333 70.334-31.55 70.334-70.333-31.552-70.333-70.334-70.333zm0 125.667c-30.511 0-55.333-24.822-55.333-55.333s24.822-55.334 55.333-55.334c30.512 0 55.334 24.822 55.334 55.333s-24.822 55.334-55.334 55.334z"/></svg>