<svg id="Capa_1" enable-background="new 0 0 512 512" height="512" viewBox="0 0 512 512" width="512" xmlns="http://www.w3.org/2000/svg"><path d="m384.5 167.698v-15.698h6.5c2.131 0 4.162-.907 5.585-2.494 1.422-1.587 2.103-3.704 1.87-5.823l-15-137c-.416-3.803-3.629-6.683-7.455-6.683h-240c-3.826 0-7.039 2.88-7.455 6.684l-15 137c-.232 2.119.448 4.236 1.87 5.823 1.423 1.587 3.454 2.494 5.585 2.494h7.5v15.544c-25.407 3.651-45 25.554-45 51.956v240c0 28.949 23.552 52.5 52.5 52.5h240c28.948 0 52.5-23.551 52.5-52.5v-240c0-26.055-19.081-47.727-44-51.803zm-256 269.302h255v22.5c0 3.995-3.505 7.5-7.5 7.5h-240c-3.995 0-7.5-3.505-7.5-7.5zm-30-15v-165h315v165zm284.134-285h-29.661l-8.905-122h25.209zm-163.855 0 4.453-122h25.268v122zm-44.711 0 8.905-122h25.248l-4.453 122zm89.432-122h25.269l4.453 122h-29.722zm44.731 122-4.453-122h25.248l8.905 122zm-165.507-122h25.209l-8.905 122h-29.661zm23.271 137h179.987 23.518v15h-226v-15zm-29.995 30h240c20.678 0 37.5 16.822 37.5 37.5v22.5h-15v-22.5c0-12.196-10.304-22.5-22.5-22.5h-210c-4.143 0-7.5 3.358-7.5 7.5s3.357 7.5 7.5 7.5h210c3.995 0 7.5 3.505 7.5 7.5v22.5h-255v-22.5c0-3.995 3.505-7.5 7.5-7.5 4.143 0 7.5-3.358 7.5-7.5s-3.357-7.5-7.5-7.5c-12.196 0-22.5 10.304-22.5 22.5v22.5h-15v-22.5c0-20.678 16.822-37.5 37.5-37.5zm240 315h-240c-20.678 0-37.5-16.822-37.5-37.5v-22.5h15v22.5c0 12.196 10.304 22.5 22.5 22.5h240c12.196 0 22.5-10.304 22.5-22.5v-22.5h15v22.5c0 20.678-16.822 37.5-37.5 37.5z"/></svg>