<svg id="Capa_1" enable-background="new 0 0 512 512" height="512" viewBox="0 0 512 512" width="512" xmlns="http://www.w3.org/2000/svg"><path d="m383.5 167.544v-16.544h7.5c4.143 0 7.5-3.358 7.5-7.5s-3.357-7.5-7.5-7.5h-7.5v-23.5c0-4.142-3.357-7.5-7.5-7.5h-240c-4.143 0-7.5 3.358-7.5 7.5v23.5h-7.5c-4.143 0-7.5 3.358-7.5 7.5s3.357 7.5 7.5 7.5h7.5v16.544c-25.407 3.651-45 25.554-45 51.956v240c0 28.949 23.552 52.5 52.5 52.5h240c28.948 0 52.5-23.551 52.5-52.5v-240c0-26.402-19.593-48.304-45-51.956zm-240-47.544h225v16h-225zm225 31v16h-225v-16zm45 308.5c0 20.678-16.822 37.5-37.5 37.5h-240c-20.678 0-37.5-16.822-37.5-37.5v-240c0-20.678 16.822-37.5 37.5-37.5h240c20.678 0 37.5 16.822 37.5 37.5z"/><path d="m391 317c-13.521 0-20.807 4.857-26.66 8.76-5.23 3.486-9.36 6.24-18.34 6.24s-13.11-2.754-18.34-6.24c-5.854-3.903-13.139-8.76-26.66-8.76s-20.806 4.857-26.66 8.76c-5.23 3.486-9.361 6.24-18.34 6.24s-13.11-2.754-18.34-6.24c-5.854-3.903-13.14-8.76-26.66-8.76s-20.806 4.857-26.66 8.76c-5.23 3.486-9.361 6.24-18.34 6.24s-13.109-2.754-18.34-6.241c-5.854-3.902-13.14-8.759-26.66-8.759-4.143 0-7.5 3.358-7.5 7.5v105c0 4.142 3.357 7.5 7.5 7.5s7.5-3.358 7.5-7.5v-96.678c4.315 1.069 7.331 3.079 10.84 5.418 5.854 3.903 13.14 8.76 26.66 8.76 13.521 0 20.806-4.857 26.66-8.76 5.23-3.486 9.361-6.24 18.34-6.24s13.11 2.754 18.34 6.24c5.854 3.903 13.14 8.76 26.66 8.76s20.806-4.857 26.66-8.76c5.23-3.486 9.361-6.24 18.34-6.24 8.98 0 13.11 2.754 18.34 6.24 5.854 3.903 13.139 8.76 26.66 8.76s20.807-4.857 26.66-8.76c3.509-2.339 6.523-4.349 10.84-5.418v126.678c0 3.995-3.505 7.5-7.5 7.5h-240c-3.995 0-7.5-3.505-7.5-7.5 0-4.142-3.357-7.5-7.5-7.5s-7.5 3.358-7.5 7.5c0 12.196 10.304 22.5 22.5 22.5h240c12.196 0 22.5-10.304 22.5-22.5v-135c0-4.142-3.357-7.5-7.5-7.5z"/><path d="m482 15h-237.29c-3.096-8.729-11.433-15-21.21-15-9.778 0-18.12 6.271-21.215 15.001l-83.448.016c-.112-.005-.223-.017-.337-.017-.112 0-.221.012-.332.017-1.446 0-2.961-.004-4.551-.007-45.355-.088-95.18 1.778-112.22 25.63-1.863 2.608-1.863 6.112 0 8.72 16.635 23.286 64.505 25.635 108.975 25.635 1.082 0 2.169-.001 3.245-.004 1.59-.004 3.105-.007 4.551-.007.111.005.22.017.332.017.114 0 .225-.012.337-.017l83.448.016c3.095 8.729 11.437 15 21.215 15 9.777 0 18.114-6.271 21.21-15h237.29c16.542 0 30-13.458 30-30s-13.458-30-30-30zm-464.192 30c18.327-14.679 66.816-15.042 93.192-14.996v29.992c-26.379.045-74.865-.317-93.192-14.996zm205.692 30c-4.136 0-7.5-3.364-7.5-7.5v-15c0-4.142-3.357-7.5-7.5-7.5s-7.5 3.358-7.5 7.5v7.499l-75-.014v-29.969l82.501-.016c4.142-.001 7.499-3.358 7.499-7.5 0-4.136 3.364-7.5 7.5-7.5s7.5 3.364 7.5 7.5v45c0 4.136-3.364 7.5-7.5 7.5zm258.5-15h-236v-30h236c8.271 0 15 6.729 15 15s-6.729 15-15 15z"/></svg>