<svg id="Capa_1" enable-background="new 0 0 512 512" height="512" viewBox="0 0 512 512" width="512" xmlns="http://www.w3.org/2000/svg"><path d="m450.122 214.901-66.622-44.415v-18.486h7.5c12.407 0 22.5-10.093 22.5-22.5 0-9.778-6.27-18.12-15-21.215v-100.785c0-4.142-3.358-7.5-7.5-7.5h-270c-4.142 0-7.5 3.358-7.5 7.5v100.785c-8.73 3.095-15 11.437-15 21.215 0 12.407 10.093 22.5 22.5 22.5h7.5v18.486l-66.622 44.415c-14.638 9.759-23.378 26.088-23.378 43.682v200.917c0 28.949 23.551 52.5 52.5 52.5h330c28.949 0 52.5-23.551 52.5-52.5v-200.917c0-17.594-8.74-33.923-23.378-43.682zm-396.622 207.099v-135h82.493c2.359 0 4.58-1.11 5.997-2.996 27.212-36.227 68.767-57.004 114.01-57.004s86.798 20.777 114.01 57.004c1.417 1.886 3.638 2.996 5.997 2.996h82.493v135zm330-315h-30v-92h30zm-75 0v-92h30v92zm-45 0v-92h30v92zm-45 0v-92h30v92zm-45 0v-92h30v92zm-15-92v92h-30v-92zm-45 114.5c0-4.136 3.364-7.5 7.5-7.5h270c4.136 0 7.5 3.364 7.5 7.5s-3.364 7.5-7.5 7.5h-270c-4.136 0-7.5-3.364-7.5-7.5zm255 22.5v15h-225v-15zm-298.301 75.381 68.072-45.381h235.458l68.072 45.381c10.456 6.971 16.699 18.635 16.699 31.202v13.417h-78.804c-14.052-17.791-32.009-32.556-52.14-42.841-22.286-11.386-46.362-17.159-71.556-17.159s-49.27 5.773-71.556 17.159c-20.131 10.285-38.088 25.05-52.14 42.841h-78.804v-13.417c0-12.567 6.243-24.231 16.699-31.202zm350.801 269.619h-330c-20.678 0-37.5-16.822-37.5-37.5v-22.5h15v22.5c0 12.196 10.304 22.5 22.5 22.5 4.142 0 7.5-3.358 7.5-7.5s-3.358-7.5-7.5-7.5c-3.995 0-7.5-3.505-7.5-7.5v-22.5h345v22.5c0 3.995-3.505 7.5-7.5 7.5h-300c-4.142 0-7.5 3.358-7.5 7.5s3.358 7.5 7.5 7.5h300c12.196 0 22.5-10.304 22.5-22.5v-22.5h15v22.5c0 20.678-16.822 37.5-37.5 37.5z"/></svg>