<svg id="Capa_1" enable-background="new 0 0 512 512" height="512" viewBox="0 0 512 512" width="512" xmlns="http://www.w3.org/2000/svg"><path d="m241 467h-15c-4.142 0-7.5 3.358-7.5 7.5s3.358 7.5 7.5 7.5h15c4.142 0 7.5-3.358 7.5-7.5s-3.358-7.5-7.5-7.5z"/><path d="m37.5 241c-4.142 0-7.5 3.358-7.5 7.5v15c0 4.142 3.358 7.5 7.5 7.5s7.5-3.358 7.5-7.5v-15c0-4.142-3.358-7.5-7.5-7.5z"/><path d="m37.5 422c-4.142 0-7.5 3.358-7.5 7.5v15c0 4.142 3.358 7.5 7.5 7.5s7.5-3.358 7.5-7.5v-15c0-4.142-3.358-7.5-7.5-7.5z"/><path d="m37.5 60c-4.142 0-7.5 3.358-7.5 7.5v15c0 4.142 3.358 7.5 7.5 7.5s7.5-3.358 7.5-7.5v-15c0-4.142-3.358-7.5-7.5-7.5z"/><path d="m429.5 241c-4.143 0-7.5 3.358-7.5 7.5v15c0 4.142 3.357 7.5 7.5 7.5s7.5-3.358 7.5-7.5v-15c0-4.142-3.357-7.5-7.5-7.5z"/><path d="m429.5 422c-4.143 0-7.5 3.358-7.5 7.5v15c0 4.142 3.357 7.5 7.5 7.5s7.5-3.358 7.5-7.5v-15c0-4.142-3.357-7.5-7.5-7.5z"/><path d="m429.5 60c-4.143 0-7.5 3.358-7.5 7.5v15c0 4.142 3.357 7.5 7.5 7.5s7.5-3.358 7.5-7.5v-15c0-4.142-3.357-7.5-7.5-7.5z"/><path d="m226 45h15c4.142 0 7.5-3.358 7.5-7.5s-3.358-7.5-7.5-7.5h-15c-4.142 0-7.5 3.358-7.5 7.5s3.358 7.5 7.5 7.5z"/><path d="m504.5 0h-497c-4.142 0-7.5 3.358-7.5 7.5v497c0 4.142 3.358 7.5 7.5 7.5h497c4.143 0 7.5-3.358 7.5-7.5v-497c0-4.142-3.357-7.5-7.5-7.5zm-7.5 497h-30v-22.5c0-4.142-3.357-7.5-7.5-7.5s-7.5 3.358-7.5 7.5v22.5h-437v-482h437v429.5c0 4.142 3.357 7.5 7.5 7.5s7.5-3.358 7.5-7.5v-429.5h30z"/><path d="m406.963 66.758c-.01-.101-.029-.199-.043-.298-.02-.143-.037-.286-.065-.427-.023-.118-.056-.233-.085-.35-.03-.121-.057-.242-.093-.362-.035-.115-.078-.227-.119-.339-.042-.118-.081-.237-.129-.353-.044-.106-.096-.208-.144-.311-.056-.118-.108-.238-.17-.354-.053-.098-.113-.192-.17-.287-.068-.115-.133-.231-.208-.342-.07-.104-.148-.202-.222-.302-.071-.095-.137-.193-.214-.286-.146-.178-.301-.347-.462-.511-.012-.012-.022-.026-.034-.038-.196-.192-.369-.349-.55-.497-.085-.069-.174-.13-.261-.195-.109-.082-.216-.166-.33-.242-.103-.069-.21-.128-.315-.192-.104-.063-.207-.128-.315-.186-.107-.057-.217-.105-.326-.157-.113-.054-.224-.11-.34-.158-.105-.044-.213-.078-.32-.117-.124-.045-.246-.092-.373-.131-.106-.032-.214-.055-.32-.082-.13-.033-.259-.069-.391-.095-.121-.024-.243-.038-.365-.056-.12-.018-.239-.04-.361-.052-.216-.021-.432-.03-.648-.033-.03 0-.059-.005-.089-.005h-332c-.03 0-.059.004-.089.005-.216.003-.433.012-.648.033-.122.012-.24.034-.359.052-.122.018-.245.032-.367.056-.131.026-.259.062-.388.095-.108.027-.217.051-.324.083-.125.038-.246.085-.369.129-.108.039-.218.075-.324.119-.114.047-.224.103-.336.156-.11.052-.221.101-.329.159-.107.058-.209.123-.314.185-.106.063-.213.123-.316.192-.115.077-.223.162-.334.245-.085.064-.173.123-.256.191-.383.314-.734.665-1.048 1.047-.07.086-.132.176-.198.264-.081.107-.164.213-.239.324-.072.107-.134.219-.2.329-.06.1-.122.197-.177.3-.061.113-.112.23-.166.346-.05.106-.103.21-.148.319-.047.113-.085.229-.126.344-.042.116-.086.23-.122.349-.035.116-.061.234-.09.351-.03.12-.064.238-.088.36-.027.136-.043.274-.063.411-.015.105-.035.208-.045.315-.025.247-.038.495-.038.744v376.995c0 .248.013.496.037.744.01.107.031.21.046.315.019.137.036.274.063.41.024.122.058.241.088.361.029.117.055.235.09.351.036.119.08.233.122.349.041.115.079.23.126.344.045.109.098.213.148.319.054.116.106.232.166.346.055.103.118.201.178.301.065.11.127.221.199.327.075.112.159.218.24.326.066.088.127.178.197.263.314.383.665.734 1.048 1.047.083.068.171.127.256.191.11.083.219.168.334.245.104.069.211.129.318.193.104.062.205.127.312.184.11.059.223.108.335.161.109.052.217.106.329.153.11.046.223.082.335.122.119.043.236.088.358.125.112.034.227.059.34.087.124.031.246.066.372.091.131.026.263.041.394.06.111.016.219.037.331.048.246.024.493.037.74.037h332c.247 0 .494-.013.74-.037.114-.011.224-.032.336-.049.13-.019.26-.034.389-.059.129-.026.253-.061.379-.093.111-.028.222-.052.332-.085.125-.038.245-.084.367-.128.109-.039.218-.075.325-.119.115-.048.226-.104.338-.157.109-.052.22-.1.327-.157.108-.058.211-.124.316-.187s.211-.122.313-.19c.114-.076.222-.161.332-.244.086-.065.175-.125.259-.194.181-.148.354-.305.52-.47.042-.039.052-.053.064-.065.161-.163.316-.333.462-.511.076-.092.142-.189.213-.284.075-.101.154-.2.224-.304.074-.111.139-.227.207-.341.057-.096.117-.19.17-.288.062-.116.115-.235.17-.354.049-.103.1-.205.144-.311.048-.116.087-.235.129-.353.04-.113.084-.224.119-.339.036-.119.063-.241.093-.362.029-.117.062-.232.085-.35.028-.141.045-.284.065-.427.014-.1.033-.198.043-.299.025-.249.038-.498.037-.748v-376.988c0-.249-.013-.499-.037-.747zm-301.963 340.242v-302h257v302zm261.393-317h-265.787l-15-15h295.787zm-276.393 10.606v310.787l-15 15v-340.787zm10.606 321.394h265.787l15 15h-295.787zm276.394-10.607v-310.786l15-15v340.786z"/></svg>