<svg id="Capa_1" enable-background="new 0 0 512 512" height="512" viewBox="0 0 512 512" width="512" xmlns="http://www.w3.org/2000/svg"><path d="m466 30h-187.5v-7.5c0-12.407-10.094-22.5-22.5-22.5s-22.5 10.093-22.5 22.5v7.5h-187.5c-4.143 0-7.5 3.358-7.5 7.5v302c0 4.142 3.357 7.5 7.5 7.5h52.5v7.5c0 4.142 3.357 7.5 7.5 7.5h20.851l-28.205 141.029c-.44 2.203.13 4.488 1.555 6.226 1.424 1.738 3.553 2.745 5.8 2.745h30c3.575 0 6.653-2.523 7.354-6.029l10.794-53.971h203.703l10.794 53.971c.701 3.506 3.779 6.029 7.354 6.029h30c2.247 0 4.376-1.007 5.8-2.745 1.425-1.738 1.995-4.022 1.555-6.226l-28.206-141.029h20.851c4.143 0 7.5-3.358 7.5-7.5v-7.5h52.5c4.143 0 7.5-3.358 7.5-7.5v-302c0-4.142-3.357-7.5-7.5-7.5zm-217.5-7.5c0-4.136 3.364-7.5 7.5-7.5s7.5 3.364 7.5 7.5v7.5h-15zm-118.648 474.5h-14.703l27-135h14.703l-10.193 50.964c-.004.018-.007.036-.011.054l-5.989 29.945c-.004.018-.007.037-.011.056zm209.999-135 9 45h-185.702l9-45zm-182.702 75 3-15h191.703l3 15zm239.703 60h-14.703l-10.796-53.981c-.004-.019-.007-.037-.011-.056l-5.989-29.945c-.004-.018-.007-.036-.011-.054l-10.193-50.964h14.703zm61.648-165h-45v-22.5c0-4.142-3.357-7.5-7.5-7.5h-210c-4.143 0-7.5 3.358-7.5 7.5s3.357 7.5 7.5 7.5h202.5v30h-22.438c-.044 0-30 0-30 0-.044 0-180.076 0-180.076 0-.017 0-.034 0-.052 0h-29.948c-.017 0-.034 0-.051 0h-22.435v-30h52.5c4.143 0 7.5-3.358 7.5-7.5s-3.357-7.5-7.5-7.5h-60c-4.143 0-7.5 3.358-7.5 7.5v22.5h-45v-287h405z"/></svg>