<svg id="Capa_1" enable-background="new 0 0 512 512" height="512" viewBox="0 0 512 512" width="512" xmlns="http://www.w3.org/2000/svg"><path d="m120 422h272c4.143 0 7.5-3.358 7.5-7.5v-317c0-4.142-3.357-7.5-7.5-7.5h-272c-4.143 0-7.5 3.358-7.5 7.5v317c0 4.142 3.357 7.5 7.5 7.5zm7.5-317h257v302h-257z"/><path d="m488.012 508.97c.075-.101.153-.2.224-.304.074-.111.139-.227.207-.341.057-.096.117-.19.17-.288.062-.116.115-.235.17-.354.049-.103.1-.205.144-.311.048-.116.087-.235.129-.353.04-.113.084-.224.119-.339.036-.119.063-.241.093-.362.029-.117.062-.232.085-.35.028-.141.045-.284.065-.427.014-.1.033-.198.043-.299.025-.249.038-.498.038-.748v-496.989c0-.25-.013-.499-.038-.748-.01-.101-.029-.199-.043-.298-.02-.143-.037-.286-.065-.427-.023-.118-.056-.233-.085-.35-.03-.121-.057-.242-.093-.362-.035-.115-.078-.227-.119-.339-.042-.118-.081-.237-.129-.353-.044-.106-.096-.208-.144-.311-.056-.118-.108-.238-.17-.354-.053-.098-.113-.192-.17-.287-.068-.115-.133-.231-.208-.342-.07-.104-.148-.202-.222-.302-.071-.095-.137-.193-.214-.286-.146-.178-.3-.347-.462-.511-.012-.012-.022-.026-.034-.038-.196-.192-.369-.349-.55-.497-.085-.069-.174-.13-.261-.195-.109-.082-.216-.166-.33-.242-.103-.069-.21-.128-.315-.192-.104-.063-.207-.128-.315-.186-.107-.057-.217-.105-.326-.157-.113-.054-.224-.11-.34-.158-.105-.044-.213-.078-.32-.117-.124-.045-.246-.092-.373-.131-.106-.032-.214-.055-.321-.082-.13-.033-.259-.069-.391-.095-.121-.024-.243-.038-.365-.056-.12-.018-.239-.04-.361-.052-.216-.021-.432-.03-.648-.033-.028 0-.057-.004-.087-.004h-452c-.03 0-.059.004-.089.005-.216.003-.433.012-.648.033-.122.012-.241.034-.361.052-.122.018-.244.032-.365.056-.133.026-.261.062-.391.095-.107.027-.215.05-.32.082-.127.038-.249.086-.373.13-.107.039-.215.074-.321.117-.115.048-.226.104-.339.157-.109.052-.22.1-.327.157-.108.058-.21.123-.315.186s-.212.123-.315.192c-.114.076-.221.161-.33.242-.086.066-.175.126-.26.196-.181.148-.354.305-.52.47-.042.039-.052.053-.064.065-.161.163-.316.333-.462.511-.076.093-.143.191-.214.286-.075.1-.153.198-.222.302-.075.112-.14.228-.208.342-.057.096-.117.189-.17.287-.062.117-.115.237-.171.356-.048.103-.099.203-.143.308-.048.117-.088.236-.13.355-.04.112-.083.223-.118.338-.036.12-.063.241-.093.362-.029.116-.062.231-.085.35-.028.142-.045.285-.065.427-.014.1-.033.197-.043.298-.025.249-.038.499-.038.748v496.99c0 .25.013.499.037.748.01.101.029.199.043.299.02.143.037.285.065.427.023.119.056.234.085.35.03.121.057.242.093.362.035.115.078.225.118.338.042.119.082.238.13.355.044.105.095.206.143.308.056.119.109.239.171.356.053.099.113.192.17.288.068.114.133.23.207.341.07.105.148.203.224.304.071.095.137.192.213.284.146.178.301.347.462.511.012.012.022.026.034.038.196.192.369.349.55.497.084.069.173.129.259.194.11.082.217.167.332.244.102.068.208.128.313.19.105.063.208.129.316.187.107.057.218.106.328.158.112.053.222.109.337.156.107.044.217.08.326.119.122.044.242.09.366.128.11.033.221.057.332.085.126.032.251.067.379.093.129.026.259.041.389.059.112.016.223.037.336.049.248.024.495.037.742.037h452c.247 0 .494-.013.74-.037.114-.011.224-.032.336-.049.13-.019.26-.034.389-.059.129-.026.253-.061.379-.093.111-.028.222-.052.332-.085.125-.038.245-.084.367-.128.109-.039.218-.075.325-.119.115-.048.226-.104.338-.157.109-.052.219-.1.327-.157.108-.058.211-.124.316-.187s.211-.122.313-.19c.114-.076.222-.161.332-.244.086-.065.175-.125.259-.194.181-.148.354-.305.52-.47.042-.039.052-.053.064-.065.161-.163.316-.333.462-.511.076-.092.142-.19.213-.285zm-69.119-448.97h-325.786l-45-45h415.786zm-336.393 10.607v170.393c0 4.142 3.357 7.5 7.5 7.5s7.5-3.358 7.5-7.5v-166h317v362h-317v-166c0-4.142-3.357-7.5-7.5-7.5s-7.5 3.358-7.5 7.5v170.393l-45 45v-460.786zm10.607 381.393h325.786l45 45h-415.786zm336.393-10.607v-370.786l45-45v460.786z"/></svg>