<svg id="Capa_1" enable-background="new 0 0 512 512" height="512" viewBox="0 0 512 512" width="512" xmlns="http://www.w3.org/2000/svg"><path d="m488.237 508.664c.072-.107.134-.218.199-.327.06-.1.123-.198.178-.301.061-.114.113-.231.167-.347.05-.105.102-.209.147-.317.047-.114.085-.23.127-.346.041-.115.086-.229.121-.347.035-.116.061-.234.09-.351.03-.12.064-.239.088-.361.027-.136.043-.273.063-.41.015-.105.035-.209.046-.315.024-.247.037-.495.037-.744v-496.995c0-.248-.013-.496-.037-.744-.01-.106-.031-.21-.045-.315-.019-.137-.036-.275-.063-.411-.024-.122-.058-.24-.088-.36-.029-.117-.055-.235-.09-.351-.036-.118-.08-.231-.121-.347s-.08-.232-.127-.346c-.045-.108-.098-.212-.147-.317-.055-.116-.106-.233-.167-.347-.055-.103-.118-.2-.177-.3-.066-.11-.128-.222-.2-.329-.075-.112-.158-.217-.239-.324-.066-.088-.127-.179-.198-.264-.314-.383-.665-.734-1.048-1.047-.083-.069-.172-.128-.257-.192-.11-.083-.218-.168-.332-.244-.104-.069-.211-.129-.317-.193-.104-.062-.206-.127-.313-.185-.108-.058-.219-.107-.329-.159-.112-.053-.221-.108-.336-.156-.107-.044-.216-.08-.324-.119-.122-.044-.243-.091-.369-.129-.107-.032-.216-.056-.325-.083-.129-.033-.256-.069-.387-.095-.122-.024-.245-.038-.367-.056-.12-.018-.237-.04-.359-.052-.216-.021-.432-.03-.648-.033-.031-.001-.06-.005-.09-.005h-452c-.03 0-.059.004-.089.005-.216.003-.433.012-.648.033-.122.012-.24.034-.359.052-.122.018-.245.032-.367.056-.131.026-.259.062-.388.095-.108.027-.217.051-.324.083-.125.038-.246.085-.369.129-.108.039-.218.075-.324.119-.114.047-.224.103-.336.156-.11.052-.221.101-.329.159-.107.058-.209.123-.314.185-.106.063-.213.123-.316.192-.115.077-.223.162-.334.245-.085.064-.173.123-.256.191-.383.314-.734.665-1.048 1.047-.07.086-.132.176-.198.264-.081.107-.164.213-.239.324-.072.107-.134.219-.2.329-.06.1-.122.197-.177.3-.061.113-.112.23-.166.346-.05.106-.103.21-.148.319-.047.113-.085.229-.126.344-.042.116-.086.23-.122.349-.035.116-.061.234-.09.351-.03.12-.064.238-.088.36-.027.136-.043.274-.063.411-.015.105-.035.208-.045.315-.024.247-.037.495-.037.744v496.995c0 .248.013.496.037.744.01.107.031.21.046.315.019.137.036.274.063.41.024.122.058.241.088.361.029.117.055.235.09.351.036.119.08.233.122.349.041.115.079.23.126.344.045.109.098.213.148.319.054.116.106.232.166.346.055.103.118.201.178.301.065.11.127.221.199.327.075.112.159.218.24.326.066.088.127.178.197.263.314.383.665.734 1.048 1.047.083.068.171.127.256.191.11.083.219.168.334.245.104.069.211.129.318.193.104.062.205.127.312.184.11.059.223.108.335.161.109.052.217.106.329.153.11.046.223.082.335.122.119.043.236.088.358.125.112.034.227.059.34.087.124.031.246.066.372.091.131.026.263.041.394.06.111.016.219.037.331.048.244.026.491.039.738.039h452c.247 0 .494-.013.74-.037.112-.011.22-.032.331-.048.132-.019.264-.034.395-.06.126-.025.248-.059.371-.091.114-.029.228-.054.341-.088.122-.037.239-.082.358-.125.112-.04.224-.077.335-.122.112-.047.22-.101.329-.153.112-.053.225-.103.335-.161.106-.057.207-.122.31-.183.107-.064.215-.124.319-.194.114-.077.222-.162.332-.244.086-.064.174-.124.257-.192.383-.314.734-.665 1.048-1.047.07-.085.131-.175.197-.263.08-.11.164-.216.239-.328zm-69.343-448.664h-325.788l-45-45h415.787zm-336.394 10.606v170.394c0 4.142 3.358 7.5 7.5 7.5s7.5-3.358 7.5-7.5v-166h317v362h-317v-166c0-4.142-3.358-7.5-7.5-7.5s-7.5 3.358-7.5 7.5v170.394l-45 45v-460.788zm10.606 381.394h325.787l45 45h-415.787zm336.394-10.606v-370.788l45-45v460.787z"/><path d="m120 422h272c4.142 0 7.5-3.358 7.5-7.5v-317c0-4.142-3.358-7.5-7.5-7.5h-272c-4.142 0-7.5 3.358-7.5 7.5v317c0 4.142 3.358 7.5 7.5 7.5zm7.5-19.5c0-22.9 11.473-43.162 28.963-55.372 28.982 21.52 63.275 32.872 99.537 32.872 10.936 0 21.827-1.077 32.5-3.185v22.685c0 2.629.458 5.153 1.29 7.5h-162.29zm66-197.872c27.622-2.666 51.055-19.883 62.5-43.879 11.445 23.996 34.878 41.213 62.5 43.879v7.872c0 34.462-28.038 62.5-62.5 62.5s-62.5-28.038-62.5-62.5zm70.534-69.094c28.047 3.618 50.315 25.886 53.932 53.932-28.046-3.617-50.315-25.886-53.932-53.932zm-70 53.932c3.618-28.047 25.886-50.315 53.932-53.932-3.617 28.046-25.886 50.315-53.932 53.932zm61.966 100.534c25.63 0 48.384-12.515 62.5-31.745v141.245c0 4.136-3.364 7.5-7.5 7.5s-7.5-3.364-7.5-7.5v-72c0-4.142-3.358-7.5-7.5-7.5h-101c-.5 0-1.002.004-1.5.014v-61.759c14.116 19.23 36.87 31.745 62.5 31.745zm-68.731 45.44c2.538-.291 5.116-.44 7.731-.44h93.5v26.495c-10.641 2.319-21.545 3.505-32.5 3.505-30.559 0-59.585-8.856-84.659-25.715 4.829-1.813 9.917-3.093 15.194-3.756.248-.018.493-.048.734-.089zm197.231 71.56h-52.29c.833-2.347 1.29-4.871 1.29-7.5v-62.436c29.595 7.413 51 34.18 51 65.436zm-257-302h257v250.109c-11.84-16.848-29.852-29.133-51-33.418v-124.191c0-42.734-34.766-77.5-77.5-77.5s-77.5 34.766-77.5 77.5v124.158c-8.918 1.818-17.308 5.094-24.934 9.543-.362.174-.714.373-1.048.606-9.873 5.956-18.399 13.922-25.017 23.325v-250.132z"/></svg>