<svg id="Capa_1" enable-background="new 0 0 512 512" height="512" viewBox="0 0 512 512" width="512" xmlns="http://www.w3.org/2000/svg"><path d="m474.5 0h-437c-4.142 0-7.5 3.358-7.5 7.5v497c0 4.142 3.358 7.5 7.5 7.5h437c4.142 0 7.5-3.358 7.5-7.5v-497c0-4.142-3.358-7.5-7.5-7.5zm-7.5 497h-30v-22.5c0-4.142-3.358-7.5-7.5-7.5s-7.5 3.358-7.5 7.5v22.5h-377v-482h377v429.5c0 4.142 3.358 7.5 7.5 7.5s7.5-3.358 7.5-7.5v-429.5h30z"/><path d="m233.5 68.5c-62.293 0-128.5 18.4-128.5 52.5v67.5c0 4.142 3.358 7.5 7.5 7.5s7.5-3.358 7.5-7.5v-41.864c23.076 17.586 69.27 26.864 113.5 26.864s90.424-9.279 113.5-26.864v94.364c0 11.278-21.392 25.86-62.36 33.174-5.38-23.27-26.259-40.674-51.14-40.674s-45.76 17.404-51.14 40.674c-40.968-7.314-62.36-21.896-62.36-33.174v-22.5c0-4.142-3.358-7.5-7.5-7.5s-7.5 3.358-7.5 7.5v172.5c0 34.1 66.206 52.5 128.5 52.5s128.5-18.4 128.5-52.5v-270c0-34.1-66.207-52.5-128.5-52.5zm0 90c-64.961 0-113.5-19.798-113.5-37.5s48.539-37.5 113.5-37.5 113.5 19.798 113.5 37.5-48.539 37.5-113.5 37.5zm0 90c20.678 0 37.5 16.822 37.5 37.5s-16.822 37.5-37.5 37.5-37.5-16.822-37.5-37.5 16.822-37.5 37.5-37.5zm-52.395 40.68c1.65 27.473 24.514 49.32 52.395 49.32s50.744-21.848 52.395-49.32c27.007-4.673 48.06-12.645 61.105-22.713v94.533c0 17.702-48.539 37.5-113.5 37.5s-113.5-19.798-113.5-37.5v-94.533c13.045 10.067 34.099 18.039 61.105 22.713zm52.395 139.32c-64.961 0-113.5-19.798-113.5-37.5v-4.364c23.076 17.586 69.27 26.864 113.5 26.864s90.424-9.279 113.5-26.864v4.364c0 17.702-48.539 37.5-113.5 37.5z"/></svg>