<svg id="Capa_1" enable-background="new 0 0 512 512" height="512" viewBox="0 0 512 512" width="512" xmlns="http://www.w3.org/2000/svg"><path d="m444.5 0h-377c-28.949 0-52.5 23.551-52.5 52.5 0 4.142 3.358 7.5 7.5 7.5h377c4.143 0 7.5-3.358 7.5-7.5 0-20.678 16.822-37.5 37.5-37.5s37.5 16.822 37.5 37.5v407c0 20.678-16.822 37.5-37.5 37.5s-37.5-16.822-37.5-37.5c0-4.142-3.357-7.5-7.5-7.5h-279.5v-369.5c0-4.142-3.358-7.5-7.5-7.5s-7.5 3.358-7.5 7.5v369.5h-82.5c-4.142 0-7.5 3.358-7.5 7.5 0 28.949 23.551 52.5 52.5 52.5h377c28.948 0 52.5-23.551 52.5-52.5v-407c0-28.949-23.552-52.5-52.5-52.5zm-51.966 45h-361.781c3.485-17.095 18.638-30 36.747-30h340.293c-8.051 7.882-13.582 18.327-15.259 30zm-325.034 452c-18.109 0-33.262-12.905-36.747-30h361.781c1.677 11.673 7.208 22.118 15.259 30z"/><path d="m165 410c4.142 0 7.5-3.358 7.5-7.5 0-22.901 11.474-43.162 28.964-55.371 28.981 21.519 63.275 32.871 99.536 32.871 10.935 0 21.827-1.077 32.5-3.185v22.685c0 12.407 10.094 22.5 22.5 22.5s22.5-10.093 22.5-22.5v-15c0-4.142-3.357-7.5-7.5-7.5s-7.5 3.358-7.5 7.5v15c0 4.136-3.364 7.5-7.5 7.5s-7.5-3.364-7.5-7.5v-72c0-4.142-3.357-7.5-7.5-7.5h-101c-.503 0-.999.029-1.5.038v-61.783c14.116 19.23 36.87 31.745 62.5 31.745s48.384-12.515 62.5-31.745v96.245c0 4.142 3.357 7.5 7.5 7.5s7.5-3.358 7.5-7.5v-17.436c29.596 7.413 51 34.18 51 65.436 0 4.142 3.357 7.5 7.5 7.5s7.5-3.358 7.5-7.5c0-39.477-27.94-73.097-66-80.81v-124.19c0-42.733-34.767-77.5-77.5-77.5-14.851 0-29.298 4.233-41.782 12.241-3.486 2.237-4.5 6.876-2.263 10.363 2.236 3.487 6.874 4.498 10.362 2.263 7.794-5 16.54-8.165 25.65-9.342-3.615 28.053-25.888 50.327-53.942 53.942 1.177-9.11 4.342-17.857 9.342-25.651 2.236-3.486 1.223-8.125-2.264-10.362-3.488-2.238-8.126-1.223-10.362 2.264-8.008 12.484-12.241 26.932-12.241 41.782v124.16c-8.901 1.814-17.273 5.083-24.887 9.518-.382.18-.752.389-1.103.635-23.955 14.453-40.01 40.728-40.01 70.687 0 4.142 3.358 7.5 7.5 7.5zm197.966-220.534c-28.047-3.617-50.315-25.886-53.932-53.932 28.047 3.617 50.315 25.886 53.932 53.932zm-61.966-28.717c11.445 23.996 34.878 41.213 62.5 43.879v7.872c0 34.462-28.037 62.5-62.5 62.5s-62.5-28.038-62.5-62.5v-7.872c27.622-2.667 51.055-19.884 62.5-43.879zm32.5 174.251v26.496c-10.641 2.319-21.545 3.504-32.5 3.504-30.557 0-59.581-8.855-84.654-25.712 7.366-2.765 15.334-4.288 23.654-4.288z"/><circle cx="195" cy="282.5" r="7.5"/><circle cx="165" cy="312.5" r="7.5"/><circle cx="407" cy="127.5" r="7.5"/></svg>