<svg id="Capa_1" enable-background="new 0 0 512 512" height="512" viewBox="0 0 512 512" width="512" xmlns="http://www.w3.org/2000/svg"><path d="m504.5 30h-83.255c-3.484-17.096-18.635-30-36.745-30s-33.261 12.904-36.745 30h-40.009c-3.485-17.096-18.636-30-36.746-30s-33.261 12.904-36.745 30h-40.009c-3.485-17.096-18.636-30-36.746-30s-33.261 12.904-36.745 30h-23.255c-4.143 0-7.5 3.358-7.5 7.5v324.5h-82.5c-4.143 0-7.5 3.358-7.5 7.5 0 28.949 23.552 52.5 52.5 52.5h347c28.948 0 52.5-23.551 52.5-52.5v-324.5h15v452h-362v-52.5c0-4.142-3.357-7.5-7.5-7.5s-7.5 3.358-7.5 7.5v60c0 4.142 3.357 7.5 7.5 7.5h407c4.143 0 7.5-3.358 7.5-7.5v-467c0-4.142-3.357-7.5-7.5-7.5zm-120-15c9.777 0 18.114 6.271 21.21 15h-42.42c3.096-8.729 11.433-15 21.21-15zm-113.5 0c9.777 0 18.114 6.271 21.21 15h-42.42c3.096-8.729 11.433-15 21.21-15zm-113.5 0c9.777 0 18.114 6.271 21.21 15h-42.42c3.096-8.729 11.433-15 21.21-15zm-105 392c-18.109 0-33.262-12.905-36.747-30h331.781c1.677 11.673 7.208 22.118 15.259 30zm384.5-37.5c0 20.678-16.822 37.5-37.5 37.5s-37.5-16.822-37.5-37.5c0-4.142-3.357-7.5-7.5-7.5h-249.5v-317h15.755c3.484 17.096 18.635 30 36.745 30 4.143 0 7.5-3.358 7.5-7.5s-3.357-7.5-7.5-7.5c-9.777 0-18.114-6.271-21.21-15h97.965c3.484 17.096 18.635 30 36.745 30 4.143 0 7.5-3.358 7.5-7.5s-3.357-7.5-7.5-7.5c-9.777 0-18.114-6.271-21.21-15h97.965c3.484 17.096 18.635 30 36.745 30 4.143 0 7.5-3.358 7.5-7.5s-3.357-7.5-7.5-7.5c-9.777 0-18.114-6.271-21.21-15h73.71zm60 127.5h-15v-452h15z"/></svg>