<svg id="Capa_1" enable-background="new 0 0 512 512" height="512" viewBox="0 0 512 512" width="512" xmlns="http://www.w3.org/2000/svg"><path d="m504.5 0h-407c-4.143 0-7.5 3.358-7.5 7.5v354.5h-82.5c-4.143 0-7.5 3.358-7.5 7.5 0 28.949 23.552 52.5 52.5 52.5h347c28.948 0 52.5-23.551 52.5-52.5v-294.5h15v422h-302v-52.5c0-4.142-3.357-7.5-7.5-7.5s-7.5 3.358-7.5 7.5v52.5h-45v-52.5c0-4.142-3.357-7.5-7.5-7.5s-7.5 3.358-7.5 7.5v60c0 4.142 3.357 7.5 7.5 7.5h407c4.143 0 7.5-3.358 7.5-7.5v-497c0-4.142-3.357-7.5-7.5-7.5zm-67.5 15v45h-332v-45zm-384.5 392c-18.109 0-33.262-12.905-36.747-30h331.781c1.677 11.673 7.208 22.118 15.259 30zm384.5-37.5c0 20.678-16.822 37.5-37.5 37.5s-37.5-16.822-37.5-37.5c0-4.142-3.357-7.5-7.5-7.5h-249.5v-287h45v264.5c0 4.142 3.357 7.5 7.5 7.5s7.5-3.358 7.5-7.5v-264.5h272zm15-354.5h45v45h-45zm30 482v-422h15v422z"/></svg>