<svg id="Capa_1" enable-background="new 0 0 512 512" height="512" viewBox="0 0 512 512" width="512" xmlns="http://www.w3.org/2000/svg"><path d="m459.5 60h-22.5v-22.5c0-4.143-3.358-7.5-7.5-7.5h-22.5v-22.5c0-4.143-3.358-7.5-7.5-7.5h-347c-4.142 0-7.5 3.357-7.5 7.5v437c0 4.143 3.358 7.5 7.5 7.5h22.5v22.5c0 4.143 3.358 7.5 7.5 7.5h22.5v22.5c0 4.143 3.358 7.5 7.5 7.5h347c4.142 0 7.5-3.357 7.5-7.5v-437c0-4.143-3.358-7.5-7.5-7.5zm-369.5 392h129.5c14.188 0 27.071-5.667 36.528-14.844.205-.166.404-.342.595-.533l135-135c.191-.191.368-.39.534-.595 9.177-9.458 14.843-22.34 14.843-36.528 0-4.143-3.358-7.5-7.5-7.5s-7.5 3.357-7.5 7.5c0 20.678-16.822 37.5-37.5 37.5h-90c-4.142 0-7.5 3.357-7.5 7.5v90c0 20.678-16.822 37.5-37.5 37.5h-159.5v-422h332v219.5c0 4.143 3.358 7.5 7.5 7.5s7.5-3.357 7.5-7.5v-189.5h15v422h-332zm181.986-51.954c.002-.183.014-.363.014-.546v-82.5h82.5c.183 0 .363-.012.546-.014zm180.014 96.954h-332v-15h309.5c4.142 0 7.5-3.357 7.5-7.5v-399.5h15z"/></svg>