<svg id="Capa_1" enable-background="new 0 0 512.032 512.032" height="512" viewBox="0 0 512.032 512.032" width="512" xmlns="http://www.w3.org/2000/svg"><path d="m154.3 352.118c-16.657-6.901-35.004-6.9-51.662-.001s-29.631 19.873-36.531 36.531c-6.9 16.657-6.9 35.005 0 51.662s19.874 29.631 36.531 36.53c8.42 3.488 17.149 5.139 25.743 5.139 26.5 0 51.695-15.703 62.451-41.669 6.9-16.657 6.9-35.005 0-51.662s-19.874-29.63-36.532-36.53zm22.673 82.452c-8.366 20.197-27.959 32.411-48.572 32.409-6.682 0-13.475-1.284-20.022-3.996-12.956-5.367-23.046-15.457-28.413-28.413s-5.367-27.226 0-40.182c5.366-12.956 15.457-23.047 28.413-28.413 6.478-2.684 13.284-4.024 20.09-4.024 6.807 0 13.614 1.342 20.092 4.024 12.956 5.367 23.046 15.457 28.413 28.413s5.365 27.226-.001 40.182z"/><path d="m409.394 352.117c-16.658-6.9-35.005-6.899-51.662.001-16.657 6.899-29.631 19.873-36.531 36.53s-6.9 35.005 0 51.662c10.757 25.968 35.948 41.669 62.45 41.669 8.591 0 17.325-1.651 25.743-5.139 16.657-6.899 29.631-19.873 36.531-36.53s6.9-35.005 0-51.662c-6.9-16.658-19.873-29.631-36.531-36.531zm22.673 82.453c-5.367 12.956-15.457 23.046-28.413 28.413-26.744 11.074-57.517-1.668-68.595-28.413-5.367-12.956-5.367-27.226 0-40.182s15.457-23.046 28.413-28.413c6.479-2.684 13.284-4.024 20.091-4.024 6.806 0 13.613 1.342 20.091 4.024 12.956 5.366 23.046 15.457 28.413 28.413 5.367 12.957 5.367 27.226 0 40.182z"/><path d="m473.642 377.168c-9.966-24.061-28.706-42.801-52.767-52.767-24.062-9.968-50.563-9.966-74.624 0-7.043 2.917-13.667 6.611-19.786 11.027l-29.86-72.088 72.311-174.575c6.9-16.657 6.9-35.005 0-51.662s-19.874-29.631-36.531-36.53c-3.829-1.589-8.215.232-9.799 4.059l-66.571 160.716-66.57-160.715c-1.584-3.827-5.972-5.645-9.799-4.059-16.657 6.899-29.631 19.873-36.531 36.53s-6.9 35.005 0 51.662l72.311 174.574-29.86 72.088c-6.119-4.416-12.742-8.109-19.786-11.027-49.668-20.575-106.816 3.097-127.39 52.767-9.966 24.061-9.966 50.563 0 74.623 9.966 24.062 28.706 42.801 52.767 52.767 12.03 4.983 24.67 7.475 37.311 7.475s25.282-2.491 37.313-7.475c24.061-9.966 42.8-28.706 52.767-52.767l37.469-90.458 37.469 90.458c15.537 37.51 51.925 60.189 90.206 60.189 12.41 0 25.025-2.386 37.185-7.423 24.061-9.966 42.8-28.705 52.767-52.767 9.964-24.059 9.964-50.561-.002-74.622zm-140.269-359.378c9.719 5.746 17.288 14.438 21.686 25.055 5.367 12.956 5.367 27.226 0 40.182l-66.571 160.716-24.354-58.795zm-128.684 428.261c-8.433 20.359-24.29 36.216-44.649 44.648-20.358 8.435-42.783 8.434-63.143.001-42.027-17.409-62.057-65.763-44.648-107.792 17.408-42.028 65.765-62.058 107.792-44.649 8.705 3.606 16.648 8.608 23.607 14.868 1.811 1.629 4.298 2.278 6.673 1.738 2.375-.538 4.34-2.195 5.272-4.444l27.952-67.481 24.354 58.795zm210.446 44.649c-42.028 17.407-90.383-2.622-107.792-44.649l-150.369-363.024c-5.367-12.956-5.367-27.226 0-40.182 4.397-10.617 11.966-19.309 21.686-25.055l63.499 153.299-19.598-8.118-37.869-91.426c-1.585-3.827-5.973-5.645-9.799-4.059-3.827 1.585-5.644 5.972-4.059 9.799l39.058 94.296c.761 1.838 2.221 3.298 4.059 4.059l36.326 15.046 66.164 159.734c.932 2.249 2.897 3.906 5.272 4.444 2.373.539 4.862-.11 6.672-1.738 6.96-6.26 14.903-11.262 23.608-14.868 42.029-17.406 90.383 2.622 107.792 44.649 17.407 42.03-2.622 90.384-44.65 107.793z"/></svg>