<svg id="Capa_1" enable-background="new 0 0 512 512" height="512" viewBox="0 0 512 512" width="512" xmlns="http://www.w3.org/2000/svg"><circle cx="136" cy="37.5" r="7.5"/><path d="m248.5 163.71c8.729-3.096 15-11.433 15-21.21 0-9.888-6.41-18.306-15.293-21.316-2.962-31.794-28.074-57.239-59.707-60.754v-52.93c0-4.143-3.358-7.5-7.5-7.5h-90c-4.142 0-7.5 3.357-7.5 7.5v52.93c-31.633 3.514-56.745 28.96-59.707 60.753-8.883 3.011-15.293 11.429-15.293 21.317 0 9.777 6.271 18.114 15 21.21v304.58c-8.729 3.096-15 11.433-15 21.21 0 12.406 10.093 22.5 22.5 22.5h210c12.407 0 22.5-10.094 22.5-22.5 0-9.777-6.271-18.114-15-21.21zm-210 303.29v-143.5h75v76c0 12.406 10.093 22.5 22.5 22.5s22.5-10.094 22.5-22.5v-76h15v31c0 12.406 10.093 22.5 22.5 22.5s22.5-10.094 22.5-22.5v-31h15v143.5zm195-302v143.5h-22.5c-4.142 0-7.5 3.357-7.5 7.5v38.5c0 4.136-3.364 7.5-7.5 7.5s-7.5-3.364-7.5-7.5v-38.5c0-4.143-3.358-7.5-7.5-7.5h-30c-4.142 0-7.5 3.357-7.5 7.5v83.5c0 4.136-3.364 7.5-7.5 7.5s-7.5-3.364-7.5-7.5v-83.5c0-4.143-3.358-7.5-7.5-7.5h-82.5v-143.5zm-60-150v45h-75v-45zm-142.5 120c4.142 0 7.5-3.357 7.5-7.5 0-28.948 23.551-52.5 52.5-52.5h90c26.402 0 48.315 19.592 51.966 45h-171.966c-4.142 0-7.5 3.357-7.5 7.5s3.358 7.5 7.5 7.5h180c4.136 0 7.5 3.364 7.5 7.5s-3.364 7.5-7.5 7.5h-210c-4.136 0-7.5-3.364-7.5-7.5s3.364-7.5 7.5-7.5zm210 362h-210c-4.136 0-7.5-3.364-7.5-7.5s3.364-7.5 7.5-7.5h210c4.136 0 7.5 3.364 7.5 7.5s-3.364 7.5-7.5 7.5z"/><path d="m466 287h-150c-20.678 0-37.5 16.822-37.5 37.5v180c0 4.143 3.357 7.5 7.5 7.5h210c4.143 0 7.5-3.357 7.5-7.5v-180c0-20.678-16.822-37.5-37.5-37.5zm22.5 210h-195v-172.5c0-12.406 10.094-22.5 22.5-22.5h150c12.406 0 22.5 10.094 22.5 22.5z"/></svg>