<svg id="Capa_1" enable-background="new 0 0 512 512" height="512" viewBox="0 0 512 512" width="512" xmlns="http://www.w3.org/2000/svg"><path d="m504.5 151h-129.988l-22.487-77.914c-4.605-15.948-19.419-27.086-36.025-27.086h-120c-16.606 0-31.42 11.138-36.024 27.086l-22.488 77.914h-32.488v-22.5c0-4.143-3.357-7.5-7.5-7.5h-75c-4.143 0-7.5 3.357-7.5 7.5v22.5h-7.5c-4.143 0-7.5 3.357-7.5 7.5v270c0 20.678 16.822 37.5 37.5 37.5h437c20.678 0 37.5-16.822 37.5-37.5v-270c0-4.143-3.357-7.5-7.5-7.5zm-7.5 15v240h-117.394c15.299-19.354 26.149-42.372 31.015-67.5h17.879c16.542 0 30-13.458 30-30s-13.458-30-30-30h-17.879c-.87-4.492-1.922-8.92-3.166-13.268-.035-.16-.067-.32-.113-.48l-28.501-98.752zm-383.5 142.5c0-78.575 63.925-142.5 142.5-142.5s142.5 63.925 142.5 142.5-63.925 142.5-142.5 142.5-142.5-63.925-142.5-142.5zm36.792-147.768c.002-.006 11.468-39.732 11.468-39.732h188.48l11.466 39.726c.002.007 12.715 44.054 12.715 44.054-28.89-32.943-71.265-53.78-118.421-53.78s-89.531 20.837-118.421 53.78zm262.489 132.768h15.719c8.271 0 15 6.729 15 15s-6.729 15-15 15h-15.719c.469-4.939.719-9.941.719-15s-.25-10.061-.719-15zm-238.393-216.254c2.761-9.565 11.648-16.246 21.612-16.246h120c9.964 0 18.851 6.681 21.612 16.246l8.299 28.754h-179.822zm-144.388 58.754h60v15h-60zm103.159 30-28.502 98.752c-.046.16-.077.32-.113.48-3.934 13.753-6.044 28.268-6.044 43.268 0 36.786 12.68 70.663 33.894 97.5h-117.394v-240zm-95.659 285c-12.406 0-22.5-10.094-22.5-22.5v-7.5h130.894c12.515 12.251 27.055 22.436 43.07 30zm437 0h-151.465c16.015-7.564 30.556-17.749 43.07-30h130.895v7.5c0 12.406-10.094 22.5-22.5 22.5z"/><path d="m353.5 308.5c0-53.762-43.738-97.5-97.5-97.5s-97.5 43.738-97.5 97.5 43.738 97.5 97.5 97.5 97.5-43.738 97.5-97.5zm-180 0c0-45.49 37.01-82.5 82.5-82.5s82.5 37.01 82.5 82.5-37.01 82.5-82.5 82.5-82.5-37.01-82.5-82.5z"/><path d="m293.5 308.5c0-20.678-16.822-37.5-37.5-37.5s-37.5 16.822-37.5 37.5c0 3.273.429 6.538 1.274 9.703 1.07 4.002 5.18 6.375 9.183 5.31 4.002-1.069 6.379-5.181 5.31-9.183-.509-1.902-.767-3.864-.767-5.83 0-12.406 10.094-22.5 22.5-22.5s22.5 10.094 22.5 22.5-10.094 22.5-22.5 22.5c-1.966 0-3.928-.258-5.83-.767-3.998-1.065-8.112 1.308-9.183 5.31-1.069 4.002 1.308 8.113 5.31 9.183 3.165.846 6.43 1.274 9.703 1.274 20.678 0 37.5-16.822 37.5-37.5z"/></svg>