<svg id="Capa_1" enable-background="new 0 0 512 512" height="512" viewBox="0 0 512 512" width="512" xmlns="http://www.w3.org/2000/svg"><path d="m468.782 395.08c-.36-.721-.835-1.38-1.405-1.949l-121.221-121.221c-2.929-2.929-7.677-2.929-10.606 0s-2.929 7.677 0 10.607l120.36 120.36 39.465 78.929-13.569 13.569-78.929-39.465-136.27-136.27 79.605-79.605 69.076 49.34c2.983 2.131 7.07 1.793 9.662-.8l84.853-84.853c2.592-2.592 2.931-6.679.8-9.662l-49.34-69.077 16.721-16.721c2.929-2.929 2.929-7.677 0-10.607l-63.64-63.64c-2.929-2.929-7.677-2.929-10.606 0l-16.721 16.721-69.077-49.339c-2.983-2.131-7.07-1.793-9.662.8l-84.853 84.853c-2.592 2.592-2.931 6.679-.8 9.662l49.341 69.077-15.966 15.965-143.354-143.355c8.772-8.773 8.772-23.047 0-31.82-8.773-8.773-23.047-8.773-31.82 0l-74.247 74.247c-8.772 8.773-8.772 23.047 0 31.82 8.773 8.773 23.047 8.773 31.82 0l143.355 143.354-166.402 166.402c-20.469 20.47-20.469 53.777 0 74.246 20.47 20.469 53.777 20.469 74.247-.001l166.401-166.4 137.13 137.13c.57.57 1.229 1.045 1.949 1.405l84.853 42.427c2.887 1.444 6.374.878 8.657-1.405l21.213-21.213c2.283-2.283 2.849-5.77 1.405-8.657zm-59.741-345.154 53.033 53.033-10.607 10.607-53.033-53.033zm-94.649-32.63 68.572 48.98 62.761 62.761 48.979 68.571-75.868 75.868-68.571-48.98-62.761-62.761-48.979-68.571zm-265.386 84.743 37.123-37.123c2.929-2.929 2.929-7.677 0-10.607-2.929-2.929-7.677-2.929-10.607 0l-47.73 47.73c-2.924 2.924-7.682 2.924-10.607 0-2.924-2.924-2.924-7.682 0-10.607l74.246-74.246c2.924-2.924 7.682-2.924 10.607 0 2.924 2.924 2.924 7.682 0 10.607l-5.303 5.303c-2.929 2.929-2.929 7.677 0 10.607l148.658 148.658-53.033 53.033zm29.986 384.002c-14.621 14.621-38.412 14.621-53.034.001-14.621-14.621-14.621-38.412 0-53.033l255.803-255.803 53.033 53.033-84.086 84.086c-.023.023-171.716 171.716-171.716 171.716z"/></svg>