<svg id="Capa_1" enable-background="new 0 0 512 512" height="512" viewBox="0 0 512 512" width="512" xmlns="http://www.w3.org/2000/svg"><path d="m459.5 0h-407c-28.949 0-52.5 23.552-52.5 52.5v407c0 28.948 23.551 52.5 52.5 52.5h407c28.949 0 52.5-23.552 52.5-52.5v-407c0-28.948-23.551-52.5-52.5-52.5zm-66.692 15c-3.192 3.124-5.991 6.645-8.308 10.491-2.317-3.846-5.116-7.367-8.308-10.491zm-16.616 482c3.192-3.124 5.991-6.645 8.308-10.491 2.317 3.846 5.116 7.367 8.308 10.491zm120.808-37.5c0 20.678-16.822 37.5-37.5 37.5h-30c-20.678 0-37.5-16.822-37.5-37.5v-188.5c0-4.143-3.358-7.5-7.5-7.5s-7.5 3.357-7.5 7.5v188.5c0 20.678-16.822 37.5-37.5 37.5h-287c-20.678 0-37.5-16.822-37.5-37.5v-407c0-20.678 16.822-37.5 37.5-37.5h287c20.678 0 37.5 16.822 37.5 37.5v188.5c0 4.143 3.358 7.5 7.5 7.5s7.5-3.357 7.5-7.5v-188.5c0-20.678 16.822-37.5 37.5-37.5h30c20.678 0 37.5 16.822 37.5 37.5z"/><path d="m459.5 105c-4.142 0-7.5 3.357-7.5 7.5 0 4.136-3.364 7.5-7.5 7.5s-7.5-3.364-7.5-7.5c0-4.143-3.358-7.5-7.5-7.5s-7.5 3.357-7.5 7.5c0 12.406 10.093 22.5 22.5 22.5s22.5-10.094 22.5-22.5c0-4.143-3.358-7.5-7.5-7.5z"/><path d="m324.5 437c-12.407 0-22.5 10.094-22.5 22.5 0 4.143 3.358 7.5 7.5 7.5s7.5-3.357 7.5-7.5c0-4.136 3.364-7.5 7.5-7.5s7.5 3.364 7.5 7.5c0 4.143 3.358 7.5 7.5 7.5s7.5-3.357 7.5-7.5c0-12.406-10.093-22.5-22.5-22.5z"/><path d="m309.5 407c4.142 0 7.5-3.357 7.5-7.5 0-12.406-10.093-22.5-22.5-22.5s-22.5 10.094-22.5 22.5c0 4.143 3.358 7.5 7.5 7.5s7.5-3.357 7.5-7.5c0-4.136 3.364-7.5 7.5-7.5s7.5 3.364 7.5 7.5c0 4.143 3.358 7.5 7.5 7.5z"/><path d="m90 52.5c0-4.143-3.358-7.5-7.5-7.5s-7.5 3.357-7.5 7.5c0 4.136-3.364 7.5-7.5 7.5s-7.5-3.364-7.5-7.5c0-4.143-3.358-7.5-7.5-7.5s-7.5 3.357-7.5 7.5c0 12.406 10.093 22.5 22.5 22.5s22.5-10.094 22.5-22.5z"/><path d="m112.5 233.5c-4.142 0-7.5 3.357-7.5 7.5 0 4.136-3.364 7.5-7.5 7.5s-7.5-3.364-7.5-7.5c0-4.143-3.358-7.5-7.5-7.5s-7.5 3.357-7.5 7.5c0 12.406 10.093 22.5 22.5 22.5s22.5-10.094 22.5-22.5c0-4.143-3.358-7.5-7.5-7.5z"/></svg>