<svg id="Capa_1" enable-background="new 0 0 512 512" height="512" viewBox="0 0 512 512" width="512" xmlns="http://www.w3.org/2000/svg"><path d="m462.828 79.172c-5.666-5.667-13.2-8.788-21.213-8.788s-15.547 3.121-21.213 8.787l-54.739 54.739c-8.57-6.188-17.67-11.652-27.164-16.313v-72.597h22.501c12.407 0 22.5-10.094 22.5-22.5s-10.093-22.5-22.5-22.5h-210c-12.407 0-22.5 10.094-22.5 22.5s10.093 22.5 22.5 22.5h22.5v72.598c-9.493 4.66-18.593 10.126-27.164 16.313l-54.738-54.739c-5.667-5.667-13.2-8.788-21.214-8.788-8.013 0-15.547 3.121-21.213 8.788-11.697 11.696-11.697 30.729 0 42.427l54.736 54.734c-23.189 32.049-35.407 69.82-35.407 109.667 0 21.541 3.636 42.686 10.807 62.845l50.926 143.21c4.244 11.929 15.604 19.945 28.267 19.945h195c12.663 0 24.023-8.016 28.267-19.946l50.926-143.208c7.171-20.16 10.807-41.305 10.807-62.846 0-39.847-12.218-77.619-35.407-109.667l54.736-54.734c11.697-11.698 11.697-30.731-.001-42.427zm-95.194 407.855c-2.122 5.965-7.802 9.973-14.134 9.973h-195c-6.332 0-12.012-4.008-14.134-9.972l-50.926-143.21c-5.762-16.198-9.041-33.091-9.779-50.318h149.839v76c0 12.406 10.093 22.5 22.5 22.5s22.5-10.094 22.5-22.5v-76h15v31c0 12.406 10.093 22.5 22.5 22.5s22.5-10.094 22.5-22.5v-31h89.839c-.737 17.228-4.017 34.121-9.779 50.319zm84.588-376.036-59.335 59.334c-2.674 2.675-2.939 6.921-.618 9.906 22.166 28.515 34.557 62.349 36.071 98.269h-97.34c-4.142 0-7.5 3.357-7.5 7.5v38.5c0 4.136-3.364 7.5-7.5 7.5s-7.5-3.364-7.5-7.5v-38.5c0-4.143-3.358-7.5-7.5-7.5h-30c-4.142 0-7.5 3.357-7.5 7.5v83.5c0 4.136-3.364 7.5-7.5 7.5s-7.5-3.364-7.5-7.5v-83.5c0-4.143-3.358-7.5-7.5-7.5h-157.34c1.514-35.919 13.905-69.753 36.071-98.269 2.321-2.985 2.056-7.231-.618-9.906l-59.334-59.333c-5.849-5.849-5.849-15.365 0-21.215 2.833-2.833 6.6-4.394 10.606-4.394 4.007 0 7.774 1.561 10.607 4.395l59.335 59.335c2.674 2.674 6.92 2.939 9.906.617 10.452-8.125 21.857-15.048 33.897-20.577 2.663-1.223 4.37-3.885 4.37-6.815v-84.838c0-4.143-3.358-7.5-7.5-7.5h-30c-4.136 0-7.5-3.364-7.5-7.5s3.364-7.5 7.5-7.5h210c4.136 0 7.5 3.364 7.5 7.5s-3.364 7.5-7.5 7.5h-150c-4.142 0-7.5 3.357-7.5 7.5s3.358 7.5 7.5 7.5h112.5v77.338c0 2.931 1.707 5.593 4.37 6.815 12.041 5.529 23.445 12.452 33.897 20.577 2.985 2.322 7.233 2.057 9.906-.617l59.335-59.335c2.833-2.834 6.6-4.395 10.607-4.395 4.006 0 7.773 1.561 10.606 4.395 5.85 5.849 5.85 15.365.001 21.213z"/></svg>