<svg id="Capa_1" enable-background="new 0 0 512 512" height="512" viewBox="0 0 512 512" width="512" xmlns="http://www.w3.org/2000/svg"><path d="m353.071 258.481c.128-.365.23-.742.301-1.131.01-.053.016-.107.024-.16.062-.389.103-.784.103-1.19s-.041-.801-.103-1.19c-.009-.054-.015-.107-.024-.16-.071-.389-.173-.766-.301-1.131-.008-.024-.011-.049-.019-.072l-29.075-80.279 29.075-80.28c.009-.024.011-.049.019-.073.128-.365.23-.742.301-1.131.01-.053.016-.107.024-.16.062-.389.103-.784.103-1.19s-.041-.801-.103-1.19c-.009-.054-.015-.107-.024-.16-.071-.389-.173-.766-.301-1.131-.008-.024-.011-.049-.019-.072l-30-82.833c-1.075-2.97-3.895-4.948-7.052-4.948h-120c-3.157 0-5.977 1.978-7.052 4.946l-30 82.833c-.009.024-.011.049-.019.073-.128.365-.23.741-.301 1.13-.01.054-.016.107-.025.161-.062.388-.103.784-.103 1.189s.041.801.103 1.189c.009.054.015.107.025.161.071.388.173.765.301 1.13.008.024.011.049.02.073l29.075 80.28-29.075 80.279c-.009.024-.011.049-.019.073-.128.365-.23.741-.301 1.13-.01.054-.016.107-.025.161-.062.388-.103.784-.103 1.189s.041.801.103 1.189c.009.054.015.107.025.161.071.388.173.765.301 1.13.008.024.011.049.02.073l29.075 80.279-29.075 80.28c-.009.024-.011.049-.019.073-.128.365-.23.741-.301 1.13-.01.054-.016.107-.025.161-.062.388-.103.784-.103 1.189s.041.801.103 1.189c.009.054.015.107.025.161.071.388.173.765.301 1.13.008.024.011.049.02.073l30 82.833c1.075 2.969 3.895 4.946 7.052 4.946h120c3.157 0 5.977-1.978 7.052-4.946l30-82.833c.009-.024.011-.049.019-.073.128-.365.23-.742.301-1.131.01-.053.016-.107.024-.16.062-.389.103-.784.103-1.19s-.041-.801-.103-1.19c-.009-.054-.015-.107-.024-.16-.071-.389-.173-.766-.301-1.131-.008-.024-.011-.049-.019-.072l-29.075-80.28 29.075-80.279c.005-.019.008-.044.016-.068zm-176.378-160.648h64.307c4.142 0 7.5-3.357 7.5-7.5s-3.358-7.5-7.5-7.5h-64.307l24.567-67.833h109.479l24.568 67.833h-64.307c-4.143 0-7.5 3.357-7.5 7.5s3.357 7.5 7.5 7.5h64.307l-24.568 67.834h-109.479zm24.567 82.834h109.48l24.567 67.833h-158.614zm109.479 316.333h-109.479l-24.567-67.833h158.614zm24.568-82.833h-158.614l24.568-67.834h109.479zm-24.567-82.834h-109.48l-24.567-67.833h158.614z"/></svg>