<svg id="Capa_1" enable-background="new 0 0 512 512" height="512" viewBox="0 0 512 512" width="512" xmlns="http://www.w3.org/2000/svg"><path d="m504.5 437h-22.5v-52.5c0-76.559-35.581-115.083-69.99-152.339-33.947-36.754-66.01-71.47-66.01-142.161 0-49.626-40.374-90-90-90s-90 40.374-90 90c0 70.691-32.063 105.407-66.01 142.161-34.409 37.256-69.99 75.78-69.99 152.339v52.5h-22.5c-4.143 0-7.5 3.357-7.5 7.5v30c0 4.143 3.357 7.5 7.5 7.5h22.5v22.5c0 4.143 3.357 7.5 7.5 7.5h437c4.143 0 7.5-3.357 7.5-7.5v-22.5h22.5c4.143 0 7.5-3.357 7.5-7.5v-30c0-4.143-3.357-7.5-7.5-7.5zm-201.076 0c-2.678-5.622-6.33-10.692-10.732-15h174.308v15zm-84.924 22.5c0-20.678 16.822-37.5 37.5-37.5s37.5 16.822 37.5 37.5-16.822 37.5-37.5 37.5-37.5-16.822-37.5-37.5zm188.5-52.5h-302v-22.5c0-47.223 18.853-67.635 50.086-101.452 18.521-20.053 39.514-42.781 56.204-72.899 19.992-36.076 29.71-75.377 29.71-120.149 0-8.271 6.729-15 15-15s15 6.729 15 15c0 44.772 9.718 84.073 29.71 120.148 16.692 30.121 37.684 52.848 56.203 72.899 31.234 33.818 50.087 54.23 50.087 101.453zm-295.99-164.661c34.409-37.256 69.99-75.78 69.99-152.339 0-41.355 33.645-75 75-75s75 33.645 75 75c0 76.559 35.581 115.083 69.99 152.339 33.947 36.754 66.01 71.47 66.01 142.161v22.5h-45v-22.5c0-53.09-22.679-77.645-54.067-111.63-17.946-19.43-38.286-41.451-54.104-69.993-18.725-33.792-27.829-70.715-27.829-112.877 0-16.542-13.458-30-30-30s-30 13.458-30 30c0 42.162-9.104 79.085-27.829 112.877-15.815 28.539-36.157 50.563-54.104 69.994-31.389 33.984-54.067 58.539-54.067 111.629v22.5h-45v-22.5c0-70.691 32.063-105.407 66.01-142.161zm-96.01 209.661h82.5c4.143 0 7.5-3.357 7.5-7.5s-3.357-7.5-7.5-7.5h-52.5v-15h174.308c-4.402 4.308-8.054 9.378-10.732 15h-81.076c-4.143 0-7.5 3.357-7.5 7.5s3.357 7.5 7.5 7.5h76.544c-.352 2.451-.544 4.953-.544 7.5s.192 5.049.544 7.5h-189.044zm30 45v-15h163.576c2.678 5.622 6.33 10.692 10.732 15zm422 0h-174.308c4.402-4.308 8.054-9.378 10.732-15h163.576zm30-30h-189.044c.352-2.451.544-4.953.544-7.5s-.192-5.049-.544-7.5h189.044z"/><path d="m256 437c-12.406 0-22.5 10.094-22.5 22.5s10.094 22.5 22.5 22.5 22.5-10.094 22.5-22.5-10.094-22.5-22.5-22.5zm0 30c-4.136 0-7.5-3.364-7.5-7.5s3.364-7.5 7.5-7.5 7.5 3.364 7.5 7.5-3.364 7.5-7.5 7.5z"/><circle cx="271" cy="354.5" r="7.5"/><circle cx="241" cy="354.5" r="7.5"/><circle cx="256" cy="324.5" r="7.5"/></svg>