<svg id="Capa_1" enable-background="new 0 0 512 512" height="512" viewBox="0 0 512 512" width="512" xmlns="http://www.w3.org/2000/svg"><path d="m504.5 0h-497c-4.143 0-7.5 3.357-7.5 7.5v497c0 4.143 3.357 7.5 7.5 7.5h497c4.143 0 7.5-3.357 7.5-7.5v-497c0-4.143-3.357-7.5-7.5-7.5zm-7.5 90h-482v-15h245.994c1.989 0 3.896-.79 5.304-2.196l57.804-57.804h172.898zm-194.113-75-44.999 45h-242.888v-45zm-287.887 482v-392h482v392z"/><path d="m459.5 75c12.406 0 22.5-10.094 22.5-22.5s-10.094-22.5-22.5-22.5-22.5 10.094-22.5 22.5 10.094 22.5 22.5 22.5zm0-30c4.136 0 7.5 3.364 7.5 7.5s-3.364 7.5-7.5 7.5-7.5-3.364-7.5-7.5 3.364-7.5 7.5-7.5z"/><path d="m399.5 75c12.406 0 22.5-10.094 22.5-22.5s-10.094-22.5-22.5-22.5-22.5 10.094-22.5 22.5 10.094 22.5 22.5 22.5zm0-30c4.136 0 7.5 3.364 7.5 7.5s-3.364 7.5-7.5 7.5-7.5-3.364-7.5-7.5 3.364-7.5 7.5-7.5z"/><path d="m317 52.5c0 12.406 10.094 22.5 22.5 22.5s22.5-10.094 22.5-22.5-10.094-22.5-22.5-22.5-22.5 10.094-22.5 22.5zm30 0c0 4.136-3.364 7.5-7.5 7.5s-7.5-3.364-7.5-7.5 3.364-7.5 7.5-7.5 7.5 3.364 7.5 7.5z"/><path d="m474.5 120h-437c-4.143 0-7.5 3.357-7.5 7.5v347c0 4.143 3.357 7.5 7.5 7.5h437c4.143 0 7.5-3.357 7.5-7.5v-347c0-4.143-3.357-7.5-7.5-7.5zm-7.5 347h-422v-332h422z"/><path d="m97.5 255c4.143 0 7.5-3.357 7.5-7.5v-52.5h52.5c4.143 0 7.5-3.357 7.5-7.5s-3.357-7.5-7.5-7.5h-60c-4.143 0-7.5 3.357-7.5 7.5v60c0 4.143 3.357 7.5 7.5 7.5z"/><path d="m354.5 195h52.5v52.5c0 4.143 3.357 7.5 7.5 7.5s7.5-3.357 7.5-7.5v-60c0-4.143-3.357-7.5-7.5-7.5h-60c-4.143 0-7.5 3.357-7.5 7.5s3.357 7.5 7.5 7.5z"/><path d="m97.5 422h60c4.143 0 7.5-3.357 7.5-7.5s-3.357-7.5-7.5-7.5h-52.5v-52.5c0-4.143-3.357-7.5-7.5-7.5s-7.5 3.357-7.5 7.5v60c0 4.143 3.357 7.5 7.5 7.5z"/><path d="m354.5 422h60c4.143 0 7.5-3.357 7.5-7.5v-60c0-4.143-3.357-7.5-7.5-7.5s-7.5 3.357-7.5 7.5v52.5h-52.5c-4.143 0-7.5 3.357-7.5 7.5s3.357 7.5 7.5 7.5z"/></svg>