<svg id="Capa_1" enable-background="new 0 0 512 512" height="512" viewBox="0 0 512 512" width="512" xmlns="http://www.w3.org/2000/svg"><path d="m391 0h-270c-20.678 0-37.5 16.822-37.5 37.5v437c0 20.678 16.822 37.5 37.5 37.5h270c20.678 0 37.5-16.822 37.5-37.5v-437c0-20.678-16.822-37.5-37.5-37.5zm-292.5 75h315v332h-315zm22.5-60h270c12.407 0 22.5 10.094 22.5 22.5v22.5h-315v-22.5c0-12.406 10.093-22.5 22.5-22.5zm270 482h-270c-12.407 0-22.5-10.094-22.5-22.5v-52.5h315v52.5c0 12.406-10.093 22.5-22.5 22.5z"/><path d="m241 45h30c4.142 0 7.5-3.357 7.5-7.5s-3.358-7.5-7.5-7.5h-30c-4.142 0-7.5 3.357-7.5 7.5s3.358 7.5 7.5 7.5z"/><path d="m361 120h-60c-4.142 0-7.5 3.357-7.5 7.5s3.358 7.5 7.5 7.5h52.5v52.5c0 4.143 3.358 7.5 7.5 7.5s7.5-3.357 7.5-7.5v-60c0-4.143-3.358-7.5-7.5-7.5z"/><path d="m361 287c-4.142 0-7.5 3.357-7.5 7.5v52.5h-52.5c-4.142 0-7.5 3.357-7.5 7.5s3.358 7.5 7.5 7.5h60c4.142 0 7.5-3.357 7.5-7.5v-60c0-4.143-3.358-7.5-7.5-7.5z"/><path d="m211 347h-52.5v-52.5c0-4.143-3.358-7.5-7.5-7.5s-7.5 3.357-7.5 7.5v60c0 4.143 3.358 7.5 7.5 7.5h60c4.142 0 7.5-3.357 7.5-7.5s-3.358-7.5-7.5-7.5z"/><path d="m211 120h-60c-4.142 0-7.5 3.357-7.5 7.5v60c0 4.143 3.358 7.5 7.5 7.5s7.5-3.357 7.5-7.5v-52.5h52.5c4.142 0 7.5-3.357 7.5-7.5s-3.358-7.5-7.5-7.5z"/><circle cx="301" cy="37.5" r="7.5"/><circle cx="211" cy="37.5" r="7.5"/><path d="m256 437c-12.407 0-22.5 10.094-22.5 22.5s10.093 22.5 22.5 22.5 22.5-10.094 22.5-22.5-10.093-22.5-22.5-22.5zm0 30c-4.136 0-7.5-3.364-7.5-7.5s3.364-7.5 7.5-7.5 7.5 3.364 7.5 7.5-3.364 7.5-7.5 7.5z"/></svg>