<svg id="Capa_1" enable-background="new 0 0 512 512" height="512" viewBox="0 0 512 512" width="512" xmlns="http://www.w3.org/2000/svg"><path d="m443.464 156.791c-.009-.094-.024-.186-.037-.279-.018-.137-.037-.273-.062-.408-.021-.113-.048-.223-.074-.334-.027-.112-.054-.223-.086-.333-.034-.117-.07-.233-.109-.348-.035-.102-.072-.202-.111-.302-.045-.115-.09-.229-.14-.34-.044-.099-.093-.197-.142-.294-.053-.106-.105-.212-.163-.315-.059-.105-.124-.207-.188-.31-.056-.09-.11-.181-.169-.268-.088-.128-.184-.252-.28-.375-.044-.056-.084-.115-.129-.169-.013-.017-73.274-87.931-73.274-87.931v-57.285c0-4.143-3.358-7.5-7.5-7.5h-210c-4.142 0-7.5 3.357-7.5 7.5v57.284l-73.262 87.914c-.058.071-.098.13-.142.186-.096.123-.192.247-.28.375-.06.087-.114.179-.17.269-.064.102-.128.203-.187.308-.058.103-.11.21-.163.316-.049.097-.097.194-.141.294-.05.112-.096.226-.14.34-.039.1-.076.2-.111.302-.039.115-.076.231-.109.348-.031.11-.059.221-.086.333-.026.111-.053.222-.074.335-.025.134-.044.27-.062.406-.012.094-.028.186-.037.281-.022.235-.036.471-.036.709v347c0 4.143 3.358 7.5 7.5 7.5h360c4.142 0 7.5-3.357 7.5-7.5v-347c0-.238-.013-.474-.036-.709zm-23.477-6.791h-117.974l58.987-70.784zm-327.974 0 62.5-75h190.474l-62.5 75zm261.487-135v45h-195v-45zm-60 482v-151c0-4.143-3.358-7.5-7.5-7.5s-7.5 3.357-7.5 7.5v151h-195v-332h195v151c0 4.143 3.358 7.5 7.5 7.5s7.5-3.357 7.5-7.5v-151h135v332z"/></svg>