<svg id="Capa_1" enable-background="new 0 0 512 512" height="512" viewBox="0 0 512 512" width="512" xmlns="http://www.w3.org/2000/svg"><path d="m481.029 150.517c-18.86-29.267-45.087-52.869-76.029-68.54v-20.977c0-4.143-3.357-7.5-7.5-7.5h-390c-4.142 0-7.5 3.357-7.5 7.5v390c0 4.143 3.358 7.5 7.5 7.5h390c4.143 0 7.5-3.357 7.5-7.5v-20.977c30.942-15.67 57.169-39.272 76.029-68.539 20.262-31.441 30.971-67.916 30.971-105.484s-10.709-74.043-30.971-105.483zm-91.029 292.983h-375v-375h375zm15-30.459v-314.082c56.258 31.639 92 92.014 92 157.041s-35.742 125.402-92 157.041z"/><circle cx="202.5" cy="173.5" r="7.5"/><circle cx="172.5" cy="173.5" r="7.5"/><circle cx="232.5" cy="173.5" r="7.5"/><path d="m67.5 398.5h270c4.143 0 7.5-3.357 7.5-7.5v-270c0-4.143-3.357-7.5-7.5-7.5h-270c-4.142 0-7.5 3.357-7.5 7.5v172.5c0 4.143 3.358 7.5 7.5 7.5s7.5-3.357 7.5-7.5v-60h255v150h-255v-60c0-4.143-3.358-7.5-7.5-7.5s-7.5 3.357-7.5 7.5v67.5c0 4.143 3.358 7.5 7.5 7.5zm7.5-180v-90h255v90z"/></svg>