<svg id="Capa_1" enable-background="new 0 0 512 512" height="512" viewBox="0 0 512 512" width="512" xmlns="http://www.w3.org/2000/svg"><path d="m444.5 437c4.143 0 7.5-3.357 7.5-7.5v-362c0-4.143-3.357-7.5-7.5-7.5h-287c-4.143 0-7.5 3.357-7.5 7.5v362c0 4.143 3.357 7.5 7.5 7.5s7.5-3.357 7.5-7.5v-166h272v166c0 4.143 3.357 7.5 7.5 7.5zm-279.5-188.5v-173.5h272v173.5z"/><circle cx="301" cy="161.75" r="7.5"/><circle cx="271" cy="161.75" r="7.5"/><circle cx="331" cy="161.75" r="7.5"/><path d="m504.5 0h-407c-4.143 0-7.5 3.357-7.5 7.5v422c0 4.143 3.357 7.5 7.5 7.5s7.5-3.357 7.5-7.5v-414.5h392v444.5c0 20.678-16.822 37.5-37.5 37.5s-37.5-16.822-37.5-37.5c0-4.143-3.357-7.5-7.5-7.5h-407c-4.143 0-7.5 3.357-7.5 7.5 0 28.948 23.552 52.5 52.5 52.5h407c28.948 0 52.5-23.552 52.5-52.5v-452c0-4.143-3.357-7.5-7.5-7.5zm-452 497c-18.109 0-33.262-12.904-36.747-30h391.781c1.677 11.673 7.208 22.118 15.259 30z"/></svg>