<svg id="Capa_1" enable-background="new 0 0 512 512" height="512" viewBox="0 0 512 512" width="512" xmlns="http://www.w3.org/2000/svg"><path d="m37.5 120h166v158.5c0 4.143 3.357 7.5 7.5 7.5s7.5-3.357 7.5-7.5v-166c0-4.143-3.357-7.5-7.5-7.5h-166v-60h422v60h-166c-4.143 0-7.5 3.357-7.5 7.5v354.5h-75v-158.5c0-4.143-3.357-7.5-7.5-7.5s-7.5 3.357-7.5 7.5v166c0 4.143 3.357 7.5 7.5 7.5h90c4.143 0 7.5-3.357 7.5-7.5v-354.5h166c4.143 0 7.5-3.357 7.5-7.5v-75c0-4.143-3.357-7.5-7.5-7.5h-437c-4.143 0-7.5 3.357-7.5 7.5v75c0 4.143 3.357 7.5 7.5 7.5z"/><path d="m504.5 0h-497c-4.143 0-7.5 3.357-7.5 7.5v165c0 4.143 3.357 7.5 7.5 7.5h30c4.143 0 7.5-3.357 7.5-7.5v-22.5h128.5v317h-22.5c-4.143 0-7.5 3.357-7.5 7.5v30c0 4.143 3.357 7.5 7.5 7.5h210c4.143 0 7.5-3.357 7.5-7.5v-30c0-4.143-3.357-7.5-7.5-7.5h-22.5v-317h128.5v22.5c0 4.143 3.357 7.5 7.5 7.5h30c4.143 0 7.5-3.357 7.5-7.5v-165c0-4.143-3.357-7.5-7.5-7.5zm-7.5 165h-15v-22.5c0-4.143-3.357-7.5-7.5-7.5h-143.5c-4.143 0-7.5 3.357-7.5 7.5v332c0 4.143 3.357 7.5 7.5 7.5h22.5v15h-195v-15h22.5c4.143 0 7.5-3.357 7.5-7.5v-332c0-4.143-3.357-7.5-7.5-7.5h-143.5c-4.143 0-7.5 3.357-7.5 7.5v22.5h-15v-150h482z"/></svg>