<svg id="Capa_1" enable-background="new 0 0 512 512" height="512" viewBox="0 0 512 512" width="512" xmlns="http://www.w3.org/2000/svg"><path d="m474.5 23.5h-437c-20.678 0-37.5 16.822-37.5 37.5v300c0 20.678 16.822 37.5 37.5 37.5h151v7.5c0 20.678-16.822 37.5-37.5 37.5h-68.5c-20.678 0-37.5 16.822-37.5 37.5 0 4.143 3.358 7.5 7.5 7.5h407c4.142 0 7.5-3.357 7.5-7.5 0-20.678-16.822-37.5-37.5-37.5h-68.5c-20.678 0-37.5-16.822-37.5-37.5v-7.5h151c20.678 0 37.5-16.822 37.5-37.5v-300c0-20.678-16.822-37.5-37.5-37.5zm-437 15h437c12.407 0 22.5 10.094 22.5 22.5v262.5h-482v-262.5c0-12.406 10.093-22.5 22.5-22.5zm286.808 405h-53.308c-4.142 0-7.5 3.357-7.5 7.5s3.358 7.5 7.5 7.5h158.5c9.778 0 18.12 6.27 21.215 15h-389.43c3.095-8.73 11.437-15 21.215-15h158.5c4.142 0 7.5-3.357 7.5-7.5s-3.358-7.5-7.5-7.5h-53.308c9.745-9.537 15.808-22.821 15.808-37.5v-7.5h105v7.5c0 14.679 6.063 27.963 15.808 37.5zm150.192-60h-437c-12.407 0-22.5-10.094-22.5-22.5v-22.5h482v22.5c0 12.406-10.093 22.5-22.5 22.5z"/></svg>