<svg id="Capa_1" enable-background="new 0 0 512 512" height="512" viewBox="0 0 512 512" width="512" xmlns="http://www.w3.org/2000/svg"><circle cx="60" cy="263.5" r="7.5"/><circle cx="60" cy="293.5" r="7.5"/><path d="m60 181c-16.542 0-30 13.458-30 30s13.458 30 30 30 30-13.458 30-30-13.458-30-30-30zm0 45c-8.271 0-15-6.729-15-15s6.729-15 15-15 15 6.729 15 15-6.729 15-15 15z"/><path d="m489.5 452h-7.5v-2.5c0-4.075-3.254-7.404-7.329-7.498l-218.5-5c-.057-.001-.114-.002-.171-.002h-158.5c-.25 0-.499.013-.747.038-.188.019-.372.051-.555.083-.056.01-.113.014-.168.025-.03.006-.047.009-.064.013l-74.936 14.987c-3.507.701-6.03 3.779-6.03 7.354v7.5h-7.5c-4.142 0-7.5 3.357-7.5 7.5s3.358 7.5 7.5 7.5h7.5v7.5c0 3.575 2.523 6.653 6.029 7.354l74.936 14.987c.017.003.034.007.051.01.069.014.125.018.181.028.184.032.367.064.555.083.249.025.498.038.748.038h158.5c.057 0 .114-.001.171-.002l218.5-5c4.074-.094 7.329-3.423 7.329-7.498v-2.5h7.5c12.407 0 22.5-10.094 22.5-22.5s-10.093-22.5-22.5-22.5zm-384.5 0h143.5v45h-143.5zm-75 13.648 60-12v41.703l-60-12zm437 26.522-203.5 4.656v-44.653l203.5 4.657zm22.5-10.17h-7.5v-15h7.5c4.136 0 7.5 3.364 7.5 7.5s-3.364 7.5-7.5 7.5z"/><path d="m474.5 0h-437c-20.678 0-37.5 16.822-37.5 37.5v347c0 20.678 16.822 37.5 37.5 37.5h437c20.678 0 37.5-16.822 37.5-37.5v-347c0-20.678-16.822-37.5-37.5-37.5zm22.5 75v272h-15v-272zm-459.5-60h437c12.407 0 22.5 10.094 22.5 22.5v22.5h-188.5c-4.142 0-7.5 3.357-7.5 7.5s3.358 7.5 7.5 7.5h158.5v272h-347v-272h158.5c4.142 0 7.5-3.357 7.5-7.5s-3.358-7.5-7.5-7.5h-263.5v-22.5c0-12.406 10.093-22.5 22.5-22.5zm-22.5 332v-272h90v272zm459.5 60h-437c-12.407 0-22.5-10.094-22.5-22.5v-22.5h482v22.5c0 12.406-10.093 22.5-22.5 22.5z"/><circle cx="60" cy="158.5" r="7.5"/><circle cx="60" cy="128.5" r="7.5"/></svg>