<svg id="Capa_1" enable-background="new 0 0 512 512" height="512" viewBox="0 0 512 512" width="512" xmlns="http://www.w3.org/2000/svg"><path d="m504.5 0h-497c-4.142 0-7.5 3.357-7.5 7.5v497c0 4.143 3.358 7.5 7.5 7.5h497c4.143 0 7.5-3.357 7.5-7.5v-497c0-4.143-3.357-7.5-7.5-7.5zm-7.5 497h-482v-482h482z"/><path d="m76 443.5h360c4.143 0 7.5-3.357 7.5-7.5v-360c0-4.143-3.357-7.5-7.5-7.5h-360c-4.142 0-7.5 3.357-7.5 7.5v360c0 4.143 3.358 7.5 7.5 7.5zm127.5-180h45v45h-45zm-15 45h-45v-45h45zm60 15v45h-45v-45zm15 0h45v45h-45zm0-15v-45h45v45zm60-45h45v45h-45zm60 0h45v45h-45zm0-15v-45h45v45zm-15 0h-45v-45h45zm-60 0h-45v-45h45zm-45-60v-45h45v45zm-15 0h-45v-45h45zm0 15v45h-45v-45zm-60 45h-45v-45h45zm-60 0h-45v-45h45zm0 15v45h-45v-45zm0 60v45h-45v-45zm15 0h45v45h-45zm45 60v45h-45v-45zm15 0h45v45h-45zm60 0h45v45h-45zm60 0h45v45h-45zm0-15v-45h45v22.5c0 4.143 3.357 7.5 7.5 7.5s7.5-3.357 7.5-7.5v-22.5h45v45zm105-180h-45v-45h45zm-60 0h-45v-45h45zm-45-60v-45h45v45zm-15 0h-45v-45h45zm-60 0h-45v-45h45zm-60 0h-45v-45h45zm0 15v45h-45v-22.5c0-4.143-3.358-7.5-7.5-7.5s-7.5 3.357-7.5 7.5v22.5h-45v-45zm-105 240h45v45h-45zm300 45v-45h45v45zm45-300h-45v-45h45zm-300-45v45h-45v-45z"/></svg>