<svg id="Capa_1" enable-background="new 0 0 512 512" height="512" viewBox="0 0 512 512" width="512" xmlns="http://www.w3.org/2000/svg"><path d="m319.658 437.849 55.827-142.616c.83-2.122.651-4.507-.488-6.481l-112.5-195c-.021-.036-.047-.066-.068-.102-.127-.211-.263-.415-.409-.611-.046-.062-.09-.124-.137-.183-.183-.232-.376-.457-.585-.665-.227-.222-.442-.406-.663-.581-.063-.05-.127-.096-.191-.143-.188-.138-.381-.267-.581-.388-.056-.034-.11-.07-.167-.102-.515-.292-1.068-.523-1.651-.688-.071-.02-.142-.037-.214-.055-.224-.056-.452-.102-.684-.137-.079-.012-.157-.026-.237-.036-.3-.037-.602-.061-.91-.061s-.61.024-.909.06c-.08.01-.157.024-.237.036-.232.036-.46.081-.684.137-.072.018-.143.035-.214.055-.582.165-1.135.396-1.651.688-.057.032-.111.068-.167.102-.2.121-.394.25-.581.388-.064.047-.129.094-.191.143-.222.175-.436.358-.636.556-.236.233-.429.458-.612.69-.047.06-.092.122-.137.183-.146.197-.282.4-.409.611-.021.035-.047.066-.068.102l-112.5 195c-1.14 1.975-1.318 4.359-.488 6.481l48.041 122.727c1.511 3.857 5.862 5.762 9.718 4.251 3.857-1.51 5.761-5.861 4.251-9.718l-46.727-119.369 96.701-167.614v137.94c-12.925 3.339-22.5 15.098-22.5 29.051 0 16.542 13.458 30 30 30s30-13.458 30-30c0-13.953-9.575-25.712-22.5-29.051v-137.94l96.701 167.615-56.32 143.876h-100.881c-37.22 0-67.5 30.28-67.5 67.5 0 4.143 3.357 7.5 7.5 7.5h226c4.143 0 7.5-3.357 7.5-7.5 0-33.593-24.67-61.525-56.842-66.651zm-48.658-145.349c0 8.271-6.729 15-15 15s-15-6.729-15-15 6.729-15 15-15 15 6.729 15 15zm-119.966 204.5c3.65-25.408 25.563-45 51.966-45h105.956c26.457.01 48.361 19.598 52.01 45z"/><path d="m504.5 218.5h-25.627c-15.824-94.619-90.754-169.549-185.373-185.373v-25.627c0-4.143-3.357-7.5-7.5-7.5h-60c-4.143 0-7.5 3.357-7.5 7.5v25.627c-94.619 15.824-169.549 90.754-185.373 185.373h-25.627c-4.143 0-7.5 3.357-7.5 7.5v60c0 4.143 3.357 7.5 7.5 7.5h60c4.143 0 7.5-3.357 7.5-7.5v-60c0-4.143-3.357-7.5-7.5-7.5h-19.159c15.504-86.341 83.818-154.655 170.159-170.159v19.159c0 4.143 3.357 7.5 7.5 7.5h60c4.143 0 7.5-3.357 7.5-7.5v-19.159c86.341 15.503 154.655 83.818 170.159 170.159h-19.159c-4.143 0-7.5 3.357-7.5 7.5v60c0 4.143 3.357 7.5 7.5 7.5h60c4.143 0 7.5-3.357 7.5-7.5v-60c0-4.143-3.357-7.5-7.5-7.5zm-444.5 60h-45v-45h24.555 20.445zm218.5-218.5h-45v-45h45zm218.5 218.5h-45v-45h20.409 24.591z"/></svg>