<svg id="Capa_1" enable-background="new 0 0 512 512" height="512" viewBox="0 0 512 512" width="512" xmlns="http://www.w3.org/2000/svg"><path d="m504.5 75c4.143 0 7.5-3.357 7.5-7.5v-60c0-4.143-3.357-7.5-7.5-7.5h-60c-4.143 0-7.5 3.357-7.5 7.5v22.5h-143.5v-22.5c0-4.143-3.357-7.5-7.5-7.5h-60c-4.143 0-7.5 3.357-7.5 7.5v22.5h-143.5v-22.5c0-4.143-3.357-7.5-7.5-7.5h-60c-4.143 0-7.5 3.357-7.5 7.5v60c0 4.143 3.357 7.5 7.5 7.5h22.5v143.5h-22.5c-4.143 0-7.5 3.357-7.5 7.5v60c0 4.143 3.357 7.5 7.5 7.5h22.5v143.5h-22.5c-4.143 0-7.5 3.357-7.5 7.5v60c0 4.143 3.357 7.5 7.5 7.5h60c4.143 0 7.5-3.357 7.5-7.5v-22.5h56.75c4.143 0 7.5-3.357 7.5-7.5s-3.357-7.5-7.5-7.5h-56.75v-22.5c0-4.143-3.357-7.5-7.5-7.5h-22.5v-143.5h22.5c4.143 0 7.5-3.357 7.5-7.5v-60c0-4.143-3.357-7.5-7.5-7.5h-22.5v-143.5h22.5c4.143 0 7.5-3.357 7.5-7.5v-22.5h143.5v22.5c0 4.143 3.357 7.5 7.5 7.5h60c4.143 0 7.5-3.357 7.5-7.5v-22.5h143.5v22.5c0 4.143 3.357 7.5 7.5 7.5h22.5v143.5h-22.5c-4.143 0-7.5 3.357-7.5 7.5v60c0 4.143 3.357 7.5 7.5 7.5h22.5v143.5h-22.5c-4.143 0-7.5 3.357-7.5 7.5v22.5h-143.5v-22.5c0-4.143-3.357-7.5-7.5-7.5h-60c-4.143 0-7.5 3.357-7.5 7.5v22.5h-56.75c-4.143 0-7.5 3.357-7.5 7.5s3.357 7.5 7.5 7.5h56.75v22.5c0 4.143 3.357 7.5 7.5 7.5h60c4.143 0 7.5-3.357 7.5-7.5v-22.5h143.5v22.5c0 4.143 3.357 7.5 7.5 7.5h60c4.143 0 7.5-3.357 7.5-7.5v-60c0-4.143-3.357-7.5-7.5-7.5h-22.5v-143.5h22.5c4.143 0 7.5-3.357 7.5-7.5v-60c0-4.143-3.357-7.5-7.5-7.5h-22.5v-143.5zm-444.5 422h-45v-45h45zm0-218.5h-45v-45h45zm0-218.5h-45v-45h45zm218.5 0h-45v-45h45zm0 437h-45v-45h45zm218.5 0h-45v-45h45zm0-218.5h-45v-45h45zm-45-263.5h45v45h-45z"/><path d="m256 218.5c-4.143 0-7.5 3.357-7.5 7.5v22.5h-22.5c-4.143 0-7.5 3.357-7.5 7.5s3.357 7.5 7.5 7.5h22.5v22.5c0 4.143 3.357 7.5 7.5 7.5s7.5-3.357 7.5-7.5v-22.5h22.5c4.143 0 7.5-3.357 7.5-7.5s-3.357-7.5-7.5-7.5h-22.5v-22.5c0-4.143-3.357-7.5-7.5-7.5z"/></svg>