<svg id="Capa_1" enable-background="new 0 0 512 512" height="512" viewBox="0 0 512 512" width="512" xmlns="http://www.w3.org/2000/svg"><path d="m329.5 246.139 95.45-95.45c2.929-2.93 2.929-7.678 0-10.607l-53.033-53.033c-1.406-1.406-3.314-2.196-5.303-2.196s-3.897.79-5.303 2.196l-359.114 359.114c-2.929 2.93-2.929 7.678 0 10.607l53.033 53.033c1.406 1.406 3.314 2.196 5.303 2.196s3.897-.79 5.303-2.196c0 .001 263.645-263.644 263.664-263.664zm37.114-143.18 42.426 42.427-84.853 84.853-42.427-42.427zm-306.081 390.935-42.426-42.427 253.048-253.048 42.427 42.427z"/><path d="m395.544 67.454 34.565 14.438 14.438 34.565c1.166 2.792 3.895 4.609 6.92 4.609s5.754-1.817 6.92-4.609l14.438-34.565 34.565-14.438c2.792-1.166 4.609-3.896 4.609-6.921s-1.818-5.755-4.609-6.921l-34.565-14.438-14.438-34.565c-1.166-2.792-3.895-4.609-6.92-4.609s-5.754 1.817-6.92 4.609l-14.438 34.565-34.565 14.438c-2.792 1.166-4.609 3.896-4.609 6.921s1.817 5.755 4.609 6.921zm43.189-15.625c1.821-.761 3.269-2.209 4.03-4.03l8.705-20.84 8.705 20.84c.761 1.821 2.208 3.27 4.03 4.03l20.839 8.704-20.839 8.704c-1.821.761-3.269 2.209-4.03 4.03l-8.705 20.84-8.705-20.84c-.761-1.821-2.208-3.27-4.03-4.03l-20.839-8.704z"/><path d="m225.838 67.454 9.726 4.063c3.821 1.596 8.214-.207 9.811-4.03.804-1.925.746-3.994.001-5.778l23.651-9.879c1.821-.761 3.269-2.209 4.03-4.03l8.705-20.84 8.705 20.84c.761 1.821 2.208 3.27 4.03 4.03l20.839 8.704-20.839 8.704c-1.821.761-3.269 2.209-4.03 4.03l-8.705 20.84-8.705-20.84c-1.596-3.822-5.99-5.627-9.811-4.03-3.822 1.597-5.626 5.989-4.03 9.812l15.625 37.408c1.166 2.792 3.895 4.609 6.92 4.609s5.754-1.817 6.92-4.609l14.438-34.565 34.565-14.438c2.792-1.166 4.609-3.896 4.609-6.921s-1.818-5.755-4.609-6.921l-34.564-14.438-14.438-34.566c-1.166-2.792-3.895-4.609-6.921-4.609s-5.754 1.817-6.92 4.609l-14.438 34.565-34.565 14.438c-2.792 1.166-4.609 3.896-4.609 6.921s1.818 5.755 4.609 6.921z"/><path d="m507.391 223.317-34.565-14.438-14.438-34.564c-1.166-2.792-3.895-4.609-6.92-4.609s-5.754 1.817-6.92 4.609l-14.438 34.564-34.565 14.438c-2.792 1.166-4.609 3.896-4.609 6.921s1.818 5.755 4.609 6.921l34.565 14.438 14.438 34.565c1.166 2.792 3.895 4.609 6.92 4.609s5.754-1.817 6.92-4.609l14.438-34.565 34.565-14.438c2.792-1.166 4.609-3.896 4.609-6.921s-1.818-5.755-4.609-6.921zm-43.19 15.625c-1.821.761-3.269 2.209-4.03 4.03l-8.705 20.84-8.705-20.84c-.761-1.821-2.208-3.27-4.03-4.03l-20.839-8.704 20.839-8.704c1.821-.761 3.269-2.209 4.03-4.03l8.705-20.839 8.705 20.839c.761 1.821 2.208 3.27 4.03 4.03l20.839 8.704z"/></svg>