<svg id="Capa_1" enable-background="new 0 0 512 512" height="512" viewBox="0 0 512 512" width="512" xmlns="http://www.w3.org/2000/svg"><path d="m492.261 19.739c-26.318-26.318-69.141-26.318-95.459 0l-79.549 79.549-15.91-15.91c-20.47-20.47-53.777-20.47-74.246 0l-10.607 10.607c-2.929 2.929-2.929 7.678 0 10.607l53.033 53.033-212.164 212.164c-15.145 15.145-20.993 37.44-15.529 57.956l-39.633 39.632c-2.929 2.929-2.929 7.678 0 10.607l31.82 31.82c2.929 2.929 7.677 2.929 10.607 0l39.633-39.633c20.515 5.463 42.81-.384 57.956-15.53l212.164-212.164 53.033 53.033c2.929 2.929 7.677 2.929 10.607 0l10.607-10.606c20.469-20.469 20.47-53.776 0-74.246l-15.91-15.91 79.549-79.549c26.317-26.319 26.317-69.142-.002-95.46zm-360.656 424.296c-12.219 12.219-30.645 16.368-46.941 10.569-2.727-.971-5.77-.285-7.818 1.763l-37.526 37.526-21.213-21.213 37.526-37.526c2.047-2.048 2.734-5.09 1.763-7.818-5.799-16.296-1.65-34.722 10.569-46.941l212.164-212.164 10.607 10.606-131.405 131.405c-2.929 2.929-2.929 7.678 0 10.607s7.677 2.929 10.607 0l57.349-57.348h42.426l-159.321 159.321c-5.849 5.849-15.365 5.848-21.213 0-5.848-5.849-5.849-15.365 0-21.213l59.546-59.546c2.929-2.929 2.929-7.678 0-10.606-2.929-2.929-7.677-2.929-10.607 0l-59.546 59.546c-11.697 11.697-11.697 30.729 0 42.426s30.729 11.697 42.426 0l212.164-212.164 10.607 10.606zm190.951-233.377-37.843 37.842h-42.426l59.056-59.056zm95.459 10.606c14.621 14.621 14.621 38.412 0 53.033l-5.303 5.303-180.312-180.312 5.303-5.303c14.621-14.621 38.412-14.621 53.033 0zm-15.91-37.123-74.246-74.246 79.549-79.55c20.469-20.469 53.776-20.47 74.246 0s20.469 53.777 0 74.246z"/></svg>