<svg id="Capa_1" enable-background="new 0 0 512 512" height="512" viewBox="0 0 512 512" width="512" xmlns="http://www.w3.org/2000/svg"><path d="m474.5 330h-292.5v-292.5c0-8.436-2.801-16.228-7.52-22.5 12.427 0 22.52 10.094 22.52 22.5v270c0 4.143 3.358 7.5 7.5 7.5s7.5-3.357 7.5-7.5v-270c0-8.436-2.801-16.228-7.52-22.5 12.427 0 22.52 10.094 22.52 22.5v270c0 4.143 3.358 7.5 7.5 7.5s7.5-3.357 7.5-7.5v-270c0-20.678-16.822-37.5-37.5-37.5h-167c-20.678 0-37.5 16.822-37.5 37.5v467c0 4.143 3.358 7.5 7.5 7.5h467c20.678 0 37.5-16.822 37.5-37.5v-107c0-20.678-16.822-37.5-37.5-37.5zm-187.5 15h60v152h-60zm-15 152h-15v-152h15zm90-152h15v152h-15zm30 0h60v152h-60zm-150 0v152h-60v-152zm-227-307.5c0-12.406 10.093-22.5 22.5-22.5h107c12.407 0 22.5 10.094 22.5 22.5v459.5h-152zm482 437c0 12.406-10.094 22.5-22.5 22.5h-7.5v-152h7.5c12.406 0 22.5 10.094 22.5 22.5z"/><path d="m91 391c-16.542 0-30 13.458-30 30s13.458 30 30 30 30-13.458 30-30-13.458-30-30-30zm0 45c-8.271 0-15-6.729-15-15s6.729-15 15-15 15 6.729 15 15-6.729 15-15 15z"/></svg>