<svg id="Capa_1" enable-background="new 0 0 512 512" height="512" viewBox="0 0 512 512" width="512" xmlns="http://www.w3.org/2000/svg"><path d="m437.02 74.98c-48.352-48.351-112.64-74.98-181.02-74.98s-132.668 26.629-181.02 74.98-74.98 112.64-74.98 181.02 26.629 132.668 74.98 181.02 112.64 74.98 181.02 74.98 132.668-26.629 181.02-74.98 74.98-112.64 74.98-181.02-26.629-132.668-74.98-181.02zm31.302 294.944-81.014-46.773c9.271-18.055 14.926-38.26 16.002-59.651h93.561c-1.179 38.392-11.377 74.55-28.549 106.424zm-219.822 33.387v93.562c-38.392-1.18-74.55-11.378-106.424-28.55l46.773-81.014c18.055 9.271 38.26 14.925 59.651 16.002zm15 0c21.391-1.076 41.596-6.731 59.651-16.002l46.773 81.014c-31.875 17.171-68.033 27.37-106.424 28.55zm-7.5-14.811c-73.061 0-132.5-59.439-132.5-132.5s59.439-132.5 132.5-132.5 132.5 59.439 132.5 132.5-59.439 132.5-132.5 132.5zm-240.872-125h93.561c1.077 21.391 6.731 41.596 16.002 59.651l-81.014 46.773c-17.171-31.874-27.369-68.032-28.549-106.424zm28.55-121.424 81.014 46.773c-9.271 18.055-14.926 38.26-16.002 59.651h-93.562c1.18-38.392 11.378-74.55 28.55-106.424zm219.822-33.387v-93.561c38.392 1.18 74.55 11.378 106.424 28.55l-46.773 81.014c-18.055-9.272-38.26-14.926-59.651-16.003zm-15 0c-21.391 1.076-41.596 6.731-59.651 16.002l-46.773-81.014c31.875-17.171 68.033-27.37 106.424-28.55zm154.811 139.811c-1.077-21.391-6.731-41.596-16.002-59.651l81.014-46.773c17.172 31.875 27.37 68.033 28.55 106.424zm57.483-119.398-81.013 46.773c-11.323-17.432-26.224-32.333-43.656-43.656l46.773-81.013c31.56 19.626 58.27 46.336 77.896 77.896zm-331.692-77.896 46.773 81.013c-17.432 11.323-32.333 26.224-43.656 43.656l-81.013-46.773c19.626-31.56 46.336-58.27 77.896-77.896zm-77.896 331.692 81.013-46.773c11.323 17.432 26.224 32.333 43.656 43.656l-46.773 81.013c-31.56-19.626-58.27-46.336-77.896-77.896zm331.692 77.896-46.773-81.013c17.432-11.323 32.333-26.224 43.656-43.656l81.013 46.773c-19.626 31.56-46.336 58.27-77.896 77.896z"/><path d="m261.709 171.137c-1.425-1.673-3.512-2.637-5.709-2.637s-4.284.964-5.709 2.637l-26.209 30.765c-2.687 3.152-2.308 7.887.846 10.572 3.151 2.687 7.887 2.309 10.572-.846l20.5-24.063 39.957 46.902c8.089 9.485 12.543 21.572 12.543 34.032 0 28.948-23.552 52.5-52.5 52.5s-52.5-23.552-52.5-52.5c0-12.46 4.454-24.547 12.543-34.032 2.688-3.151 2.312-7.886-.841-10.573-3.151-2.688-7.887-2.313-10.573.841-10.4 12.197-16.129 27.74-16.129 43.765 0 37.22 30.28 67.5 67.5 67.5s67.5-30.28 67.5-67.5c0-16.024-5.729-31.567-16.127-43.762z"/></svg>