<svg id="Capa_1" enable-background="new 0 0 512 512" height="512" viewBox="0 0 512 512" width="512" xmlns="http://www.w3.org/2000/svg"><path d="m490.776 262.278c-13.467-23.177-32.762-42.681-55.8-56.4-3.558-2.12-8.162-.953-10.281 2.605-2.12 3.559-.953 8.162 2.605 10.281 42.993 25.605 69.7 72.55 69.7 122.516 0 78.575-63.926 142.501-142.502 142.501-31.936 0-62.264-10.439-87.098-29.694.491-.479.986-.95 1.471-1.436 29.748-29.748 46.131-69.299 46.131-111.369 0-8.094-.615-16.048-1.799-23.817 49.49-19.359 86.867-63.065 97.335-116.311.055-.224.096-.448.129-.673 1.852-9.642 2.833-19.589 2.833-29.762 0-86.847-70.654-157.501-157.5-157.501s-157.5 70.655-157.5 157.502c0 8.066.612 15.992 1.787 23.735-20.065 7.812-38.475 19.775-54.156 35.457-29.748 29.747-46.131 69.298-46.131 111.368 0 86.847 70.655 157.501 157.502 157.501 36.259 0 70.645-12.181 98.498-34.589 27.854 22.409 62.238 34.59 98.498 34.589 86.847 0 157.502-70.654 157.502-157.501 0-27.788-7.339-55.106-21.224-79.002zm-190.774 79.004c0 38.063-14.822 73.848-41.737 100.763-.747.747-1.504 1.481-2.265 2.21-.761-.729-1.517-1.463-2.265-2.21-26.915-26.915-41.737-62.699-41.737-100.763 0-6.427.436-12.753 1.264-18.957 13.596 3.838 27.931 5.896 42.738 5.896s29.142-2.058 42.738-5.896c.828 6.204 1.264 12.53 1.264 18.957zm-44.002-102.881c19.298 18.483 33.415 42.328 39.949 69.112-12.681 3.709-26.085 5.708-39.949 5.708s-27.268-1.999-39.949-5.708c6.534-26.784 20.651-50.629 39.949-69.112zm-54.169 64.113c-41.661-17.187-73.45-53.571-84.29-98.074 12.819-3.723 26.239-5.659 39.959-5.659 32.776 0 62.998 11.129 87.099 29.798-20.453 19.951-35.518 45.398-42.768 73.935zm108.338 0c-7.25-28.537-22.314-53.985-42.768-73.935 24.102-18.669 54.323-29.798 87.099-29.798 13.611 0 27.019 1.915 39.952 5.687-10.846 44.491-42.63 80.863-84.283 98.046zm-196.669-131.794c0-78.575 63.925-142.501 142.5-142.501s142.5 63.926 142.5 142.501c0 6.422-.435 12.744-1.262 18.944-13.859-3.902-28.196-5.883-42.738-5.883-37.246 0-71.506 13.004-98.5 34.698-26.994-21.695-61.254-34.698-98.5-34.698-14.657 0-29.006 1.994-42.743 5.844-.824-6.187-1.257-12.496-1.257-18.905zm44.002 313.061c-78.576 0-142.502-63.926-142.502-142.501 0-38.063 14.822-73.848 41.737-100.763 13.556-13.555 29.363-24.039 46.576-31.111 12.544 49.487 48.574 89.709 95.484 108.059-1.183 7.769-1.799 15.722-1.799 23.817 0 42.07 16.383 81.621 46.131 111.369.486.486.981.958 1.471 1.436-24.834 19.256-55.162 29.694-87.098 29.694z"/></svg>